<?xml version="1.0" encoding="us-ascii" standalone="no"?><svg xmlns="http://www.w3.org/2000/svg" xmlns:xlink="http://www.w3.org/1999/xlink" contentStyleType="text/css" height="478px" preserveAspectRatio="none" style="width:4668px;height:478px;background:#FFFFFF;" version="1.1" viewBox="0 0 4668 478" width="4668px" zoomAndPan="magnify"><defs/><g><!--cluster Sistema de Gesti?n de Master bread--><g id="cluster_Sistema de Gesti&#243;n de Master bread"><rect fill="#F3E2BD" height="342" rx="2.5" ry="2.5" style="stroke:#2F4F4F;stroke-width:1.0;" width="4266" x="66.09" y="130.5"/><text fill="#000000" font-family="sans-serif" font-size="14" font-weight="bold" lengthAdjust="spacing" textLength="256" x="2071.09" y="147.0332">Sistema de Gesti&#243;n de Master bread</text></g><g id="elem_UC1"><ellipse cx="1640.1787" cy="194.0177" fill="#D89A6A" rx="68.0887" ry="16.0177" style="stroke:#2F4F4F;stroke-width:0.5;"/><text fill="#000000" font-family="sans-serif" font-size="14" lengthAdjust="spacing" textLength="82" x="1596.1787" y="198.5343">Iniciar sesi&#243;n</text></g><g id="elem_UC2"><ellipse cx="1238.8759" cy="193.8572" fill="#D89A6A" rx="72.2859" ry="16.8572" style="stroke:#2F4F4F;stroke-width:0.5;"/><text fill="#000000" font-family="sans-serif" font-size="14" lengthAdjust="spacing" textLength="94" x="1188.8759" y="198.3738">Ver dashboard</text></g><g id="elem_UC3"><ellipse cx="1813.047" cy="193.7914" fill="#D89A6A" rx="69.457" ry="16.2914" style="stroke:#2F4F4F;stroke-width:0.5;"/><text fill="#000000" font-family="sans-serif" font-size="14" lengthAdjust="spacing" textLength="86" x="1767.047" y="198.308">Cerrar sesi&#243;n</text></g><g id="elem_UC4"><ellipse cx="607.2431" cy="439.9306" fill="#D89A6A" rx="70.1531" ry="16.4306" style="stroke:#2F4F4F;stroke-width:0.5;"/><text fill="#000000" font-family="sans-serif" font-size="14" lengthAdjust="spacing" textLength="88" x="560.2431" y="444.4472">Ver inventario</text></g><g id="elem_UC5"><ellipse cx="161.2719" cy="194.1364" fill="#D89A6A" rx="78.6819" ry="18.1364" style="stroke:#2F4F4F;stroke-width:0.5;"/><text fill="#000000" font-family="sans-serif" font-size="14" lengthAdjust="spacing" textLength="111" x="104.1847" y="198.3083">Agregar producto</text></g><g id="elem_UC6"><ellipse cx="380.9356" cy="194.1691" fill="#D89A6A" rx="106.3456" ry="23.6691" style="stroke:#2F4F4F;stroke-width:0.5;"/><text fill="#000000" font-family="sans-serif" font-size="14" lengthAdjust="spacing" textLength="175" x="293.4356" y="197.8976">Editar cantidad de producto</text></g><g id="elem_UC9"><ellipse cx="2041.8627" cy="193.7545" fill="#D89A6A" rx="124.2727" ry="27.2545" style="stroke:#2F4F4F;stroke-width:0.5;"/><text fill="#000000" font-family="sans-serif" font-size="14" lengthAdjust="spacing" textLength="214" x="1934.8627" y="197.4831">Generar reporte de env&#237;os diarios</text></g><g id="elem_UC10"><ellipse cx="2314.3092" cy="193.9438" fill="#D89A6A" rx="112.7192" ry="24.9438" style="stroke:#2F4F4F;stroke-width:0.5;"/><text fill="#000000" font-family="sans-serif" font-size="14" lengthAdjust="spacing" textLength="189" x="2219.8092" y="197.6724">Generar reporte de inventario</text></g><g id="elem_UC11"><ellipse cx="2578.0239" cy="194.0868" fill="#D89A6A" rx="115.9339" ry="25.5868" style="stroke:#2F4F4F;stroke-width:0.5;"/><text fill="#000000" font-family="sans-serif" font-size="14" lengthAdjust="spacing" textLength="196" x="2480.0239" y="197.8153">Generar reporte de despachos</text></g><g id="elem_UC12"><ellipse cx="2843.1848" cy="194.219" fill="#D89A6A" rx="114.0948" ry="25.219" style="stroke:#2F4F4F;stroke-width:0.5;"/><text fill="#000000" font-family="sans-serif" font-size="14" lengthAdjust="spacing" textLength="192" x="2747.1848" y="197.9475">Gestionar usuarios y permisos</text></g><g id="elem_UC13"><ellipse cx="1061.945" cy="320.171" fill="#D89A6A" rx="76.355" ry="17.671" style="stroke:#2F4F4F;stroke-width:0.5;"/><text fill="#000000" font-family="sans-serif" font-size="14" lengthAdjust="spacing" textLength="105" x="1006.7133" y="324.6255">Registrar pedido</text></g><g id="elem_UC14"><ellipse cx="1061.8588" cy="194.1538" fill="#D89A6A" rx="68.7688" ry="16.1538" style="stroke:#2F4F4F;stroke-width:0.5;"/><text fill="#000000" font-family="sans-serif" font-size="14" lengthAdjust="spacing" textLength="84" x="1016.8588" y="198.6704">Crear factura</text></g><g id="elem_UC15"><ellipse cx="1441.8414" cy="193.8503" fill="#D89A6A" rx="94.7514" ry="21.3503" style="stroke:#2F4F4F;stroke-width:0.5;"/><text fill="#000000" font-family="sans-serif" font-size="14" lengthAdjust="spacing" textLength="149" x="1367.3414" y="197.5788">Gestionar devoluciones</text></g><g id="elem_UC16"><ellipse cx="3076.0966" cy="194.2013" fill="#D89A6A" rx="84.0066" ry="19.2013" style="stroke:#2F4F4F;stroke-width:0.5;"/><text fill="#000000" font-family="sans-serif" font-size="14" lengthAdjust="spacing" textLength="124" x="3014.0966" y="197.9298">Ver ruta de entrega</text></g><g id="elem_UC17"><ellipse cx="3272.2103" cy="193.8241" fill="#D89A6A" rx="77.1203" ry="17.8241" style="stroke:#2F4F4F;stroke-width:0.5;"/><text fill="#000000" font-family="sans-serif" font-size="14" lengthAdjust="spacing" textLength="107" x="3216.3683" y="198.1856">Reclamar pedido</text></g><g id="elem_UC18"><ellipse cx="3500.9454" cy="193.7711" fill="#D89A6A" rx="116.8554" ry="25.7711" style="stroke:#2F4F4F;stroke-width:0.5;"/><text fill="#000000" font-family="sans-serif" font-size="14" lengthAdjust="spacing" textLength="198" x="3401.9454" y="197.4996">Marcar pedido como entregado</text></g><g id="elem_UC19"><ellipse cx="3769.0239" cy="194.0868" fill="#D89A6A" rx="115.9339" ry="25.5868" style="stroke:#2F4F4F;stroke-width:0.5;"/><text fill="#000000" font-family="sans-serif" font-size="14" lengthAdjust="spacing" textLength="196" x="3671.0239" y="197.8153">Reportar incidencia en entrega</text></g><g id="elem_UC20"><ellipse cx="3994.3327" cy="194.1485" fill="#D89A6A" rx="73.7427" ry="17.1485" style="stroke:#2F4F4F;stroke-width:0.5;"/><text fill="#000000" font-family="sans-serif" font-size="14" lengthAdjust="spacing" textLength="98" x="3942.3327" y="198.6651">Realizar pedido</text></g><g id="elem_UC21"><ellipse cx="4208.9356" cy="194.1691" fill="#D89A6A" rx="106.3456" ry="23.6691" style="stroke:#2F4F4F;stroke-width:0.5;"/><text fill="#000000" font-family="sans-serif" font-size="14" lengthAdjust="spacing" textLength="175" x="4121.4356" y="197.8976">Consultar estado de pedido</text></g><g id="elem_UC22"><ellipse cx="865.8528" cy="194.1526" fill="#D89A6A" rx="91.2628" ry="20.6526" style="stroke:#2F4F4F;stroke-width:0.5;"/><text fill="#000000" font-family="sans-serif" font-size="14" lengthAdjust="spacing" textLength="141" x="795.3528" y="197.8811">Programar producci&#243;n</text></g><g id="elem_UC23"><ellipse cx="631.2485" cy="194.0317" fill="#D89A6A" rx="108.1585" ry="24.0317" style="stroke:#2F4F4F;stroke-width:0.5;"/><text fill="#000000" font-family="sans-serif" font-size="14" lengthAdjust="spacing" textLength="179" x="541.7485" y="197.7602">Registrar lote de producci&#243;n</text></g><!--entity admin--><g id="elem_admin"><ellipse cx="2042.09" cy="14" fill="#FFC0CB" rx="8" ry="8" style="stroke:#181818;stroke-width:0.5;"/><path d="M2042.09,22 L2042.09,49 M2029.09,30 L2055.09,30 M2042.09,49 L2029.09,64 M2042.09,49 L2055.09,64 " fill="none" style="stroke:#181818;stroke-width:0.5;"/><text fill="#000000" font-family="sans-serif" font-size="14" lengthAdjust="spacing" textLength="87" x="1998.59" y="80.0332">Administrador</text></g><!--entity inventory--><g id="elem_inventory"><ellipse cx="443.09" cy="14" fill="#90EE90" rx="8" ry="8" style="stroke:#181818;stroke-width:0.5;"/><path d="M443.09,22 L443.09,49 M430.09,30 L456.09,30 M443.09,49 L430.09,64 M443.09,49 L456.09,64 " fill="none" style="stroke:#181818;stroke-width:0.5;"/><text fill="#000000" font-family="sans-serif" font-size="14" lengthAdjust="spacing" textLength="112" x="387.09" y="80.0332">Jefe de inventario</text></g><!--entity dispatcher--><g id="elem_dispatcher"><ellipse cx="1391.09" cy="14" fill="#FFFFE0" rx="8" ry="8" style="stroke:#181818;stroke-width:0.5;"/><path d="M1391.09,22 L1391.09,49 M1378.09,30 L1404.09,30 M1391.09,49 L1378.09,64 M1391.09,49 L1404.09,64 " fill="none" style="stroke:#181818;stroke-width:0.5;"/><text fill="#000000" font-family="sans-serif" font-size="14" lengthAdjust="spacing" textLength="85" x="1348.59" y="80.0332">Despachador</text></g><!--entity deliveryGuy--><g id="elem_deliveryGuy"><ellipse cx="3076.09" cy="14" fill="#E0FFFF" rx="8" ry="8" style="stroke:#181818;stroke-width:0.5;"/><path d="M3076.09,22 L3076.09,49 M3063.09,30 L3089.09,30 M3076.09,49 L3063.09,64 M3076.09,49 L3089.09,64 " fill="none" style="stroke:#181818;stroke-width:0.5;"/><text fill="#000000" font-family="sans-serif" font-size="14" lengthAdjust="spacing" textLength="67" x="3042.59" y="80.0332">Repartidor</text></g><!--entity customer--><g id="elem_customer"><ellipse cx="4101.09" cy="14" fill="#ADD8E6" rx="8" ry="8" style="stroke:#181818;stroke-width:0.5;"/><path d="M4101.09,22 L4101.09,49 M4088.09,30 L4114.09,30 M4101.09,49 L4088.09,64 M4101.09,49 L4114.09,64 " fill="none" style="stroke:#181818;stroke-width:0.5;"/><text fill="#000000" font-family="sans-serif" font-size="14" lengthAdjust="spacing" textLength="44" x="4079.09" y="80.0332">Cliente</text></g><g id="elem_Recuperar contrase&#241;a"><ellipse cx="4440.2865" cy="320.2393" fill="#D89A6A" rx="91.6965" ry="20.7393" style="stroke:#2F4F4F;stroke-width:0.5;"/><text fill="#000000" font-family="sans-serif" font-size="14" lengthAdjust="spacing" textLength="142" x="4369.2865" y="323.9678">Recuperar contrase&#241;a</text></g><g id="elem_GMN64"><path d="M4530.59,172.5 L4530.59,215.2031 L4661.59,215.2031 L4661.59,182.5 L4651.59,172.5 L4530.59,172.5 " fill="#FEFFDD" style="stroke:#181818;stroke-width:0.5;"/><path d="M4651.59,172.5 L4651.59,182.5 L4661.59,182.5 L4651.59,172.5 " fill="#FEFFDD" style="stroke:#181818;stroke-width:1.0;"/><text fill="#000000" font-family="sans-serif" font-size="13" lengthAdjust="spacing" textLength="66" x="4536.59" y="190.9951">Proceso de</text><text fill="#000000" font-family="sans-serif" font-size="13" lengthAdjust="spacing" textLength="110" x="4536.59" y="207.3467">creaci&#243;n de factura</text></g><g id="elem_GMN67"><path d="M4348.59,418.5 L4348.59,461.2031 L4481.59,461.2031 L4481.59,428.5 L4471.59,418.5 L4348.59,418.5 " fill="#FEFFDD" style="stroke:#181818;stroke-width:0.5;"/><path d="M4471.59,418.5 L4471.59,428.5 L4481.59,428.5 L4471.59,418.5 " fill="#FEFFDD" style="stroke:#181818;stroke-width:1.0;"/><text fill="#000000" font-family="sans-serif" font-size="13" lengthAdjust="spacing" textLength="112" x="4354.59" y="436.9951">Actualiza inventario</text><text fill="#000000" font-family="sans-serif" font-size="13" lengthAdjust="spacing" textLength="100" x="4354.59" y="453.3467">autom&#225;ticamente</text></g><g id="elem_GMN70"><path d="M4351.09,172.5 L4351.09,215.2031 L4495.09,215.2031 L4495.09,182.5 L4485.09,172.5 L4351.09,172.5 " fill="#FEFFDD" style="stroke:#181818;stroke-width:0.5;"/><path d="M4485.09,172.5 L4485.09,182.5 L4495.09,182.5 L4485.09,172.5 " fill="#FEFFDD" style="stroke:#181818;stroke-width:1.0;"/><text fill="#000000" font-family="sans-serif" font-size="13" lengthAdjust="spacing" textLength="120" x="4357.09" y="190.9951">Basado en inventario</text><text fill="#000000" font-family="sans-serif" font-size="13" lengthAdjust="spacing" textLength="123" x="4357.09" y="207.3467">y pedidos pendientes</text></g><!--link admin to UC1--><g id="link_admin_UC1"><path d="M1998.33,49.93 C1935.32,57.65 1816.65,77.31 1726.09,122.5 C1697.41,136.81 1673.976,157.9309 1658.086,174.0209 " fill="none" id="admin-to-UC1" style="stroke:#000000;stroke-width:1.0;"/><polygon fill="#000000" points="1653.87,178.29,1663.0401,174.697,1657.3834,174.7324,1657.348,169.0757,1653.87,178.29" style="stroke:#000000;stroke-width:1.0;"/></g><!--link admin to UC2--><g id="link_admin_UC2"><path d="M1998.49,47.11 C1863.28,52.6 1452.74,73.02 1330.09,122.5 C1299.51,134.84 1274.7826,156.3174 1258.0626,173.0374 " fill="none" id="admin-to-UC2" style="stroke:#000000;stroke-width:1.0;"/><polygon fill="#000000" points="1253.82,177.28,1263.0124,173.7445,1257.3555,173.7445,1257.3555,168.0876,1253.82,177.28" style="stroke:#000000;stroke-width:1.0;"/></g><!--link admin to UC3--><g id="link_admin_UC3"><path d="M1998.32,66.59 C1969.62,81.06 1931.69,101.39 1900.09,122.5 C1874.38,139.67 1851.5538,158.7457 1834.5238,173.7357 " fill="none" id="admin-to-UC3" style="stroke:#000000;stroke-width:1.0;"/><polygon fill="#000000" points="1830.02,177.7,1839.4186,174.7561,1833.7732,174.3964,1834.1328,168.751,1830.02,177.7" style="stroke:#000000;stroke-width:1.0;"/></g><!--link admin to UC9--><g id="link_admin_UC9"><path d="M2042.09,83.87 C2042.09,109.82 2042.09,137.43 2042.09,160.45 " fill="none" id="admin-to-UC9" style="stroke:#000000;stroke-width:1.0;"/><polygon fill="#000000" points="2042.09,166.45,2046.09,157.45,2042.09,161.45,2038.09,157.45,2042.09,166.45" style="stroke:#000000;stroke-width:1.0;"/></g><!--link admin to UC10--><g id="link_admin_UC10"><path d="M2085.79,69.2 C2137.3,97.13 2216.9757,140.3397 2267.4457,167.7097 " fill="none" id="admin-to-UC10" style="stroke:#000000;stroke-width:1.0;"/><polygon fill="#000000" points="2272.72,170.57,2266.7153,162.7633,2268.3247,168.1864,2262.9016,169.7958,2272.72,170.57" style="stroke:#000000;stroke-width:1.0;"/></g><!--link admin to UC11--><g id="link_admin_UC11"><path d="M2085.72,49.6 C2160.72,57.58 2318.17,78.41 2444.09,122.5 C2478.45,134.53 2509.687,151.1232 2535.867,166.6232 " fill="none" id="admin-to-UC11" style="stroke:#000000;stroke-width:1.0;"/><polygon fill="#000000" points="2541.03,169.68,2535.3234,161.6529,2536.7275,167.1327,2531.2477,168.5368,2541.03,169.68" style="stroke:#000000;stroke-width:1.0;"/></g><!--link admin to UC12--><g id="link_admin_UC12"><path d="M2085.98,44.89 C2194.76,44.57 2484.47,51.07 2712.09,122.5 C2747.08,133.48 2778.4811,150.7755 2804.0311,166.8455 " fill="none" id="admin-to-UC12" style="stroke:#000000;stroke-width:1.0;"/><polygon fill="#000000" points="2809.11,170.04,2803.6213,161.8624,2804.8776,167.378,2799.362,168.6343,2809.11,170.04" style="stroke:#000000;stroke-width:1.0;"/></g><!--link inventory to UC1--><g id="link_inventory_UC1"><path d="M497.65,83.59 C518.41,95.95 542.91,108.12 567.09,114.5 C620.16,128.5 1503.53,103.66 1555.09,122.5 C1585.52,133.62 1608.8693,156.2642 1623.8993,173.4442 " fill="none" id="inventory-to-UC1" style="stroke:#000000;stroke-width:1.0;"/><polygon fill="#000000" points="1627.85,177.96,1624.9345,168.5526,1624.5578,174.1968,1618.9135,173.8201,1627.85,177.96" style="stroke:#000000;stroke-width:1.0;"/></g><!--link inventory to UC2--><g id="link_inventory_UC2"><path d="M477.99,83.55 C491.66,95.83 508.33,107.95 526.09,114.5 C558.56,126.47 1116.44,111 1149.09,122.5 C1180.16,133.45 1204.6555,155.4824 1220.9355,172.6824 " fill="none" id="inventory-to-UC2" style="stroke:#000000;stroke-width:1.0;"/><polygon fill="#000000" points="1225.06,177.04,1221.7783,167.754,1221.6229,173.4087,1215.9682,173.2533,1225.06,177.04" style="stroke:#000000;stroke-width:1.0;"/></g><!--link inventory to UC3--><g id="link_inventory_UC3"><path d="M499.47,47.92 C739.68,58.36 1668.17,100 1726.09,122.5 C1756.35,134.25 1780.0756,156.2656 1795.7556,173.2156 " fill="none" id="inventory-to-UC3" style="stroke:#000000;stroke-width:1.0;"/><polygon fill="#000000" points="1799.83,177.62,1796.6546,168.2971,1796.4346,173.9496,1790.7821,173.7296,1799.83,177.62" style="stroke:#000000;stroke-width:1.0;"/></g><!--link inventory to UC4--><g id="link_inventory_UC4"><path d="M386.69,47.56 C285.21,52.58 78.25,69.25 34.09,122.5 C6,156.37 10.44,184.39 34.09,221.5 C143.73,393.56 404.6102,429.5411 531.6602,436.9411 " fill="none" id="inventory-to-UC4" style="stroke:#000000;stroke-width:1.0;"/><polygon fill="#000000" points="537.65,437.29,528.8978,432.7735,532.6585,436.9993,528.4326,440.7599,537.65,437.29" style="stroke:#000000;stroke-width:1.0;"/></g><!--link inventory to UC5--><g id="link_inventory_UC5"><path d="M386.92,64.71 C349.14,78.6 298.81,99 257.09,122.5 C228.98,138.33 204.1261,157.2534 185.3661,172.5834 " fill="none" id="inventory-to-UC5" style="stroke:#000000;stroke-width:1.0;"/><polygon fill="#000000" points="180.72,176.38,190.2202,173.7825,184.5917,173.2162,185.158,167.5877,180.72,176.38" style="stroke:#000000;stroke-width:1.0;"/></g><!--link inventory to UC6--><g id="link_inventory_UC6"><path d="M418.22,83.78 C412.74,93.25 407.31,103.54 403.09,113.5 C395.26,131.96 390.7541,148.1602 387.0641,164.3402 " fill="none" id="inventory-to-UC6" style="stroke:#000000;stroke-width:1.0;"/><polygon fill="#000000" points="385.73,170.19,391.631,162.3047,386.8418,165.3152,383.8313,160.5259,385.73,170.19" style="stroke:#000000;stroke-width:1.0;"/></g><!--link inventory to UC22--><g id="link_inventory_UC22"><path d="M457.56,83.65 C464.09,95.62 473.09,107.52 485.09,114.5 C511.22,129.7 728.22,113.51 757.09,122.5 C790.66,132.95 819.1566,153.0279 839.9166,170.1079 " fill="none" id="inventory-to-UC22" style="stroke:#000000;stroke-width:1.0;"/><polygon fill="#000000" points="844.55,173.92,840.1413,165.113,840.6888,170.7433,835.0586,171.2908,844.55,173.92" style="stroke:#000000;stroke-width:1.0;"/></g><!--link inventory to UC23--><g id="link_inventory_UC23"><path d="M434.78,83.68 C434.52,94.8 436.68,106.18 444.09,114.5 C453.18,124.71 492.11,118.2 505.09,122.5 C539.47,133.9 570.163,151.5991 594.753,167.7291 " fill="none" id="inventory-to-UC23" style="stroke:#000000;stroke-width:1.0;"/><polygon fill="#000000" points="599.77,171.02,594.4385,162.739,595.5892,168.2776,590.0506,169.4283,599.77,171.02" style="stroke:#000000;stroke-width:1.0;"/></g><!--link dispatcher to UC1--><g id="link_dispatcher_UC1"><path d="M1433.73,62.01 C1467.77,76.01 1516.05,97.72 1555.09,122.5 C1581.31,139.15 1603.991,158.869 1620.341,174.109 " fill="none" id="dispatcher-to-UC1" style="stroke:#000000;stroke-width:1.0;"/><polygon fill="#000000" points="1624.73,178.2,1620.8738,169.1374,1621.0725,174.7908,1615.4191,174.9894,1624.73,178.2" style="stroke:#000000;stroke-width:1.0;"/></g><!--link dispatcher to UC2--><g id="link_dispatcher_UC2"><path d="M1351.55,83.87 C1320.23,114.26 1282.4074,150.9731 1259.6274,173.0631 " fill="none" id="dispatcher-to-UC2" style="stroke:#000000;stroke-width:1.0;"/><polygon fill="#000000" points="1255.32,177.24,1264.5657,173.8462,1258.9095,173.7592,1258.9965,168.1031,1255.32,177.24" style="stroke:#000000;stroke-width:1.0;"/></g><!--link dispatcher to UC3--><g id="link_dispatcher_UC3"><path d="M1433.59,49.07 C1499.27,55.92 1628.05,74.72 1726.09,122.5 C1754.75,136.47 1778.1474,157.2274 1794.3174,173.3974 " fill="none" id="dispatcher-to-UC3" style="stroke:#000000;stroke-width:1.0;"/><polygon fill="#000000" points="1798.56,177.64,1795.0245,168.4476,1795.0245,174.1045,1789.3676,174.1045,1798.56,177.64" style="stroke:#000000;stroke-width:1.0;"/></g><!--link dispatcher to UC13--><g id="link_dispatcher_UC13"><path d="M1348.52,47.17 C1124.09,56.1 87.66,98.57 65.09,122.5 C34.89,154.5 35.53,188.91 65.09,221.5 C126.72,289.45 758.052,311.4764 980.212,317.1664 " fill="none" id="dispatcher-to-UC13" style="stroke:#000000;stroke-width:1.0;"/><polygon fill="#000000" points="986.21,317.32,977.3154,313.0909,981.2116,317.192,977.1105,321.0883,986.21,317.32" style="stroke:#000000;stroke-width:1.0;"/></g><!--link dispatcher to UC14--><g id="link_dispatcher_UC14"><path d="M1348.52,53.98 C1298.63,65.04 1214.48,87.24 1149.09,122.5 C1121.02,137.63 1097.5285,158.1446 1081.1685,173.9246 " fill="none" id="dispatcher-to-UC14" style="stroke:#000000;stroke-width:1.0;"/><polygon fill="#000000" points="1076.85,178.09,1086.1047,174.7209,1080.4488,174.6188,1080.5508,168.9629,1076.85,178.09" style="stroke:#000000;stroke-width:1.0;"/></g><!--link dispatcher to UC15--><g id="link_dispatcher_UC15"><path d="M1404.35,83.87 C1414.15,112.21 1425.1495,144.0093 1433.0495,166.8593 " fill="none" id="dispatcher-to-UC15" style="stroke:#000000;stroke-width:1.0;"/><polygon fill="#000000" points="1435.01,172.53,1435.8496,162.717,1433.3762,167.8045,1428.2888,165.331,1435.01,172.53" style="stroke:#000000;stroke-width:1.0;"/></g><!--link deliveryGuy to UC1--><g id="link_deliveryGuy_UC1"><path d="M3042.45,54.9 C2983.43,70.88 2857.14,102.72 2748.09,114.5 C2719.86,117.55 1752.78,112.84 1726.09,122.5 C1695.41,133.6 1671.7446,156.2841 1656.4846,173.4641 " fill="none" id="deliveryGuy-to-UC1" style="stroke:#000000;stroke-width:1.0;"/><polygon fill="#000000" points="1652.5,177.95,1661.4674,173.8775,1655.8205,174.2118,1655.4862,168.5648,1652.5,177.95" style="stroke:#000000;stroke-width:1.0;"/></g><!--link deliveryGuy to UC2--><g id="link_deliveryGuy_UC2"><path d="M3042.43,46.85 C2801.72,56.48 1350.98,114.83 1330.09,122.5 C1298.94,133.93 1274.1116,155.8772 1257.5516,172.9172 " fill="none" id="deliveryGuy-to-UC2" style="stroke:#000000;stroke-width:1.0;"/><polygon fill="#000000" points="1253.37,177.22,1262.5109,173.5535,1256.8547,173.6343,1256.7739,167.978,1253.37,177.22" style="stroke:#000000;stroke-width:1.0;"/></g><!--link deliveryGuy to UC3--><g id="link_deliveryGuy_UC3"><path d="M3042.39,65.39 C3011.9,82.18 2965.13,104.96 2921.09,114.5 C2865.65,126.51 1953.48,103.35 1900.09,122.5 C1869.35,133.53 1845.4995,155.9854 1829.9795,173.1854 " fill="none" id="deliveryGuy-to-UC3" style="stroke:#000000;stroke-width:1.0;"/><polygon fill="#000000" points="1825.96,177.64,1834.959,173.6378,1829.3096,173.9278,1829.0195,168.2784,1825.96,177.64" style="stroke:#000000;stroke-width:1.0;"/></g><!--link deliveryGuy to UC16--><g id="link_deliveryGuy_UC16"><path d="M3076.09,83.87 C3076.09,113.23 3076.09,146.4 3076.09,168.95 " fill="none" id="deliveryGuy-to-UC16" style="stroke:#000000;stroke-width:1.0;"/><polygon fill="#000000" points="3076.09,174.95,3080.09,165.95,3076.09,169.95,3072.09,165.95,3076.09,174.95" style="stroke:#000000;stroke-width:1.0;"/></g><!--link deliveryGuy to UC17--><g id="link_deliveryGuy_UC17"><path d="M3109.78,70.86 C3150.06,101.17 3211.4957,147.4023 3245.5557,173.0323 " fill="none" id="deliveryGuy-to-UC17" style="stroke:#000000;stroke-width:1.0;"/><polygon fill="#000000" points="3250.35,176.64,3245.5637,168.0324,3246.3548,173.6336,3240.7535,174.4247,3250.35,176.64" style="stroke:#000000;stroke-width:1.0;"/></g><!--link deliveryGuy to UC18--><g id="link_deliveryGuy_UC18"><path d="M3109.59,51.8 C3164.54,62.69 3276.76,87.31 3367.09,122.5 C3400.28,135.43 3430.6667,151.4325 3456.8267,166.4525 " fill="none" id="deliveryGuy-to-UC18" style="stroke:#000000;stroke-width:1.0;"/><polygon fill="#000000" points="3462.03,169.44,3456.2167,161.4898,3457.6939,166.9504,3452.2333,168.4276,3462.03,169.44" style="stroke:#000000;stroke-width:1.0;"/></g><!--link deliveryGuy to UC19--><g id="link_deliveryGuy_UC19"><path d="M3109.81,46.06 C3198.32,48.4 3443.69,60.44 3636.09,122.5 C3670.91,133.73 3702.3001,150.6316 3728.2401,166.4816 " fill="none" id="deliveryGuy-to-UC19" style="stroke:#000000;stroke-width:1.0;"/><polygon fill="#000000" points="3733.36,169.61,3727.7658,161.5042,3729.0934,167.003,3723.5946,168.3307,3733.36,169.61" style="stroke:#000000;stroke-width:1.0;"/></g><!--link customer to UC20--><g id="link_customer_UC20"><path d="M4078.92,76.06 C4056.64,106.78 4026.6822,148.0626 4009.1922,172.1826 " fill="none" id="customer-to-UC20" style="stroke:#000000;stroke-width:1.0;"/><polygon fill="#000000" points="4005.67,177.04,4014.1916,172.1021,4008.6052,172.9922,4007.7151,167.4058,4005.67,177.04" style="stroke:#000000;stroke-width:1.0;"/></g><!--link customer to UC21--><g id="link_customer_UC21"><path d="M4123.2,75.7 C4143.82,103.86 4170.5346,140.3495 4189.0946,165.6895 " fill="none" id="customer-to-UC21" style="stroke:#000000;stroke-width:1.0;"/><polygon fill="#000000" points="4192.64,170.53,4190.5489,160.9057,4189.6855,166.4963,4184.095,165.6328,4192.64,170.53" style="stroke:#000000;stroke-width:1.0;"/></g><!--reverse link UC1 to Recuperar contrase?a--><g id="link_UC1_Recuperar contrase&#241;a"><path d="M1679.9951,209.7782 C1695.5551,215.0282 1708.67,218.61 1726.09,221.5 C1761.81,227.43 4296.07,295.73 4332.09,299.5 C4345.92,300.95 4360.65,303.16 4374.63,305.57 " fill="none" id="UC1-backto-Recuperar contrase&#241;a" style="stroke:#000000;stroke-width:1.0;stroke-dasharray:7.0,7.0;"/><polygon fill="#000000" points="1674.31,207.86,1681.5589,214.5273,1679.0476,209.4585,1684.1165,206.9472,1674.31,207.86" style="stroke:#000000;stroke-width:1.0;"/><text fill="#000000" font-family="sans-serif" font-size="13" lengthAdjust="spacing" textLength="53" x="3260.09" y="265.9951">&#171;extend&#187;</text></g><!--link UC13 to UC4--><g id="link_UC13_UC4"><path d="M1013.39,333.63 C924.67,356.64 743.7478,403.5535 657.8578,425.8335 " fill="none" id="UC13-to-UC4" style="stroke:#000000;stroke-width:1.0;stroke-dasharray:7.0,7.0;"/><polygon fill="#000000" points="652.05,427.34,661.766,428.952,656.8898,426.0845,659.7573,421.2083,652.05,427.34" style="stroke:#000000;stroke-width:1.0;"/><text fill="#000000" font-family="sans-serif" font-size="13" lengthAdjust="spacing" textLength="55" x="862.09" y="384.9951">&#171;include&#187;</text></g><!--link UC14 to UC13--><g id="link_UC14_UC13"><path d="M1062.09,210.2 C1062.09,233.62 1062.09,272.31 1062.09,296.49 " fill="none" id="UC14-to-UC13" style="stroke:#000000;stroke-width:1.0;stroke-dasharray:7.0,7.0;"/><polygon fill="#000000" points="1062.09,302.49,1066.09,293.49,1062.09,297.49,1058.09,293.49,1062.09,302.49" style="stroke:#000000;stroke-width:1.0;"/><text fill="#000000" font-family="sans-serif" font-size="13" lengthAdjust="spacing" textLength="55" x="1063.09" y="265.9951">&#171;include&#187;</text></g><!--link UC20 to UC13--><g id="link_UC20_UC13"><path d="M3955.62,208.6 C3939.59,213.64 3920.65,218.78 3903.09,221.5 C3629.6,263.88 2934.68,242.32 2658.09,251.5 C2071.16,270.98 1369.233,304.1306 1142.043,315.1006 " fill="none" id="UC20-to-UC13" style="stroke:#000000;stroke-width:1.0;stroke-dasharray:7.0,7.0;"/><polygon fill="#000000" points="1136.05,315.39,1145.2324,318.9513,1141.0442,315.1489,1144.8466,310.9606,1136.05,315.39" style="stroke:#000000;stroke-width:1.0;"/><text fill="#000000" font-family="sans-serif" font-size="13" lengthAdjust="spacing" textLength="55" x="2659.09" y="265.9951">&#171;include&#187;</text></g><!--link UC14 to GMN64--><g id="link_UC14_GMN64"><path d="M1074.11,177.99 C1091.63,156.14 1126.48,118.01 1166.59,103 C1209.89,86.79 4452.45,86.37 4495.59,103 C4531.39,116.8 4562.34,149.92 4580.11,172.16 " fill="none" id="UC14-GMN64" style="stroke:#000000;stroke-width:1.0;stroke-dasharray:7.0,7.0;"/></g><!--link UC13 to GMN67--><g id="link_UC13_GMN67"><path d="M1138.49,321.08 C1568.05,321.84 3686.02,330.11 4332.09,418.5 C4337.38,419.22 4342.83,420.15 4348.28,421.21 " fill="none" id="UC13-GMN67" style="stroke:#000000;stroke-width:1.0;stroke-dasharray:7.0,7.0;"/></g><!--link GMN70 to UC22--><g id="link_GMN70_UC22"><path d="M4405.44,172.12 C4385.94,149.85 4352.25,116.7 4314.59,103 C4271.24,87.23 1037.51,88.93 993.59,103 C950.34,116.85 909.26,151.36 885.92,173.67 " fill="none" id="GMN70-UC22" style="stroke:#000000;stroke-width:1.0;stroke-dasharray:7.0,7.0;"/></g><!--SRC=[VLRRRXit47tVho3Y1wSFCQILhLY2OS2M2w55KmGEsg90NiRaI29CaOiXLubQv6Fw0Nue-WdwiGwv5rrs7J_Ou9ap5yuCp_fSFE12MotrxZyh50hqGHldC_-iRG44Qr5wbE1H_9q9SG_oUKckj6hcZ2DnfgudC8PeSQIGAlG1wFcJWO1pWYtRxeZSbzfXa7uYA8EZxtebmad2FrO88VjsK1wX362NvfK25oFCdzHt2_oMPUUdRO2O77qslLDhndqWK8wc0ho0Y8YpZze-PzEVSO6Hh-q6RG3IBd6gewEjEFj5BrTXJeWscpwWBq2ksb1Aypd85LBD-nEDSL-owIFovO9kUMZq1caxBvk0iorml9dHd0OJHvO-k7KRwTwK6E_rYMl7DOY2j9Mw09Fj6_QcCV85vd7mzUK_0CCadWX1lKbjFHSpy2uMmklWX7Jhqd9tX7ZxKsmQaF3ee_iFiPJVPiDe-frZAF2h9mUaQaCU3JCawhYCs98oTLlQ1DiZjSzbjDmj2PSShY2dIXvRRRkAjX-LPhwGOBcPe6BO4zeuQ_8UJJewpz5Yh9EmS1HIJMWtkvVO1nshy7MCoIliJht3mIjCLIr66t4uh8Wy4sUPMleo9HHRKI2jjTypywR-W-MApe-uJ9VXng3YJMhuepG17Ys91MzvIT1OBezpAjmuKqe-O9ligacsNz1cE5G6g5eKuZmQZt5LYpImxfJoFje-0CdM4ZVBDI7snEigI6mNn3MGMY7_0cQUvfiq5TPle_84e_ywJP-dOSoSzQM9OVdYd3Ajo15js4OyV0BSR9IxbuMM5LQ01TQNtKiKmxSVoIsfkd5QDtcmw7b-F1xZgXteOOugRNf40zKS8e_LkPMdIelUlRjDR-xmb1-THaUdoR7VuFXu78VtAzkhMPFf5CaxoAY3N7QGgmuoxaRkXkQsP0VAsTJKWV8kDEfnxCCkUx0hpdgWmstQ3fRtOAC-tt4V-BuFlEu39rdMYdwTUT11Xjq5mgy1RPBUZAE8cukBz4BB8gcITFoW-7k_-vVVr5JSt2Iwkhtj1kA7QCesq4XSNAGv9wzaKyXkiPsrYJcdjdpmcetJ_Ue2FmJyMXWj8UWD-Cp6rqBn2oVS8esAtVYvIVJnxNwsagMj_OpN2bTvFRd0hQdTOZR-3wDCod2Wr9yjbCpQ_HCuvJefI78skAWpvZcxteEFOi7wS-YwhQN3yr-halxux7y0]--></g></svg>