<?xml version="1.0" encoding="us-ascii" standalone="no"?><svg xmlns="http://www.w3.org/2000/svg" xmlns:xlink="http://www.w3.org/1999/xlink" contentStyleType="text/css" height="2607px" preserveAspectRatio="none" style="width:959px;height:2607px;background:#FFFFFF;" version="1.1" viewBox="0 0 959 2607" width="959px" zoomAndPan="magnify"><defs/><g><!--cluster Sistema de Master Bread--><g id="cluster_Sistema de Master Bread"><rect fill="#F3E2BD" height="2044" rx="2.5" ry="2.5" style="stroke:#2F4F4F;stroke-width:1.0;" width="771" x="182" y="557.5"/><text fill="#000000" font-family="sans-serif" font-size="14" font-weight="bold" lengthAdjust="spacing" textLength="176" x="479.5" y="574.0332">Sistema de Master Bread</text></g><g id="elem_UC1"><ellipse cx="294.2827" cy="1810.4565" fill="#D89A6A" rx="80.2827" ry="18.4565" style="stroke:#2F4F4F;stroke-width:0.5;"/><text fill="#000000" font-family="sans-serif" font-size="14" lengthAdjust="spacing" textLength="115" x="235.9192" y="1814.4341">Autenticar usuario</text></g><g id="elem_UC2"><ellipse cx="294.4386" cy="1589.4034" fill="#D89A6A" rx="86.4386" ry="27.9034" style="stroke:#2F4F4F;stroke-width:0.5;"/><text fill="#000000" font-family="sans-serif" font-size="14" lengthAdjust="spacing" textLength="106" x="241.4386" y="1584.3272">Acceder al panel</text><text fill="#000000" font-family="sans-serif" font-size="14" lengthAdjust="spacing" textLength="63" x="262.9386" y="1601.9366">de control</text></g><g id="elem_UC3"><ellipse cx="294.7427" cy="1704.6485" fill="#D89A6A" rx="73.7427" ry="17.1485" style="stroke:#2F4F4F;stroke-width:0.5;"/><text fill="#000000" font-family="sans-serif" font-size="14" lengthAdjust="spacing" textLength="98" x="242.7427" y="1709.1651">Finalizar sesi&#243;n</text></g><g id="elem_UC4"><ellipse cx="835.4607" cy="2400.4472" fill="#D89A6A" rx="101.4607" ry="27.9472" style="stroke:#2F4F4F;stroke-width:0.5;"/><text fill="#000000" font-family="sans-serif" font-size="14" lengthAdjust="spacing" textLength="127" x="768.9607" y="2396.1591">Consultar inventario</text><text fill="#000000" font-family="sans-serif" font-size="14" lengthAdjust="spacing" textLength="38" x="813.4607" y="2413.7685">actual</text></g><g id="elem_UC5"><ellipse cx="294.4031" cy="2179.4034" fill="#D89A6A" rx="82.9031" ry="27.9034" style="stroke:#2F4F4F;stroke-width:0.5;"/><text fill="#000000" font-family="sans-serif" font-size="14" lengthAdjust="spacing" textLength="101" x="243.9031" y="2174.3272">Registrar nuevo</text><text fill="#000000" font-family="sans-serif" font-size="14" lengthAdjust="spacing" textLength="56" x="266.4031" y="2191.9366">producto</text></g><g id="elem_UC6"><ellipse cx="294.2817" cy="2305.4034" fill="#D89A6A" rx="80.7817" ry="27.9034" style="stroke:#2F4F4F;stroke-width:0.5;"/><text fill="#000000" font-family="sans-serif" font-size="14" lengthAdjust="spacing" textLength="98" x="245.2817" y="2300.3272">Actualizar stock</text><text fill="#000000" font-family="sans-serif" font-size="14" lengthAdjust="spacing" textLength="76" x="256.2817" y="2317.9366">de producto</text></g><g id="elem_UC9"><ellipse cx="294.4748" cy="1463.4036" fill="#D89A6A" rx="89.9748" ry="27.9036" style="stroke:#2F4F4F;stroke-width:0.5;"/><text fill="#000000" font-family="sans-serif" font-size="14" lengthAdjust="spacing" textLength="111" x="238.7409" y="1458.3944">Generar informes</text><text fill="#000000" font-family="sans-serif" font-size="14" lengthAdjust="spacing" textLength="66" x="261.2409" y="1476.0038">de gesti&#243;n</text></g><g id="elem_UC10"><ellipse cx="562.6102" cy="1526.4034" fill="#D89A6A" rx="83.6102" ry="27.9034" style="stroke:#2F4F4F;stroke-width:0.5;"/><text fill="#000000" font-family="sans-serif" font-size="14" lengthAdjust="spacing" textLength="102" x="511.6102" y="1521.3272">Obtener reporte</text><text fill="#000000" font-family="sans-serif" font-size="14" lengthAdjust="spacing" textLength="82" x="521.6102" y="1538.9366">de inventario</text></g><g id="elem_UC11"><ellipse cx="562.6102" cy="1400.4034" fill="#D89A6A" rx="83.6102" ry="27.9034" style="stroke:#2F4F4F;stroke-width:0.5;"/><text fill="#000000" font-family="sans-serif" font-size="14" lengthAdjust="spacing" textLength="102" x="511.6102" y="1395.3272">Obtener reporte</text><text fill="#000000" font-family="sans-serif" font-size="14" lengthAdjust="spacing" textLength="89" x="518.1102" y="1412.9366">de despachos</text></g><g id="elem_UC12"><ellipse cx="294.4031" cy="1337.4208" fill="#D89A6A" rx="96.4031" ry="27.9208" style="stroke:#2F4F4F;stroke-width:0.5;"/><text fill="#000000" font-family="sans-serif" font-size="14" lengthAdjust="spacing" textLength="120" x="231.9388" y="1333.0021">Gestionar usuarios</text><text fill="#000000" font-family="sans-serif" font-size="14" lengthAdjust="spacing" textLength="68" x="257.9388" y="1350.6115">y permisos</text></g><g id="elem_UC13"><ellipse cx="562.696" cy="2243.4034" fill="#D89A6A" rx="82.196" ry="27.9034" style="stroke:#2F4F4F;stroke-width:0.5;"/><text fill="#000000" font-family="sans-serif" font-size="14" lengthAdjust="spacing" textLength="100" x="512.696" y="2238.3272">Procesar nuevo</text><text fill="#000000" font-family="sans-serif" font-size="14" lengthAdjust="spacing" textLength="43" x="541.196" y="2255.9366">pedido</text></g><g id="elem_UC14"><ellipse cx="294.4031" cy="2431.4034" fill="#D89A6A" rx="82.9031" ry="27.9034" style="stroke:#2F4F4F;stroke-width:0.5;"/><text fill="#000000" font-family="sans-serif" font-size="14" lengthAdjust="spacing" textLength="101" x="243.9031" y="2426.3272">Generar factura</text><text fill="#000000" font-family="sans-serif" font-size="14" lengthAdjust="spacing" textLength="55" x="266.9031" y="2443.9366">de venta</text></g><g id="elem_UC15"><ellipse cx="294.6751" cy="2557.4034" fill="#D89A6A" rx="70.1751" ry="27.9034" style="stroke:#2F4F4F;stroke-width:0.5;"/><text fill="#000000" font-family="sans-serif" font-size="14" lengthAdjust="spacing" textLength="62" x="263.6751" y="2552.3272">Gestionar</text><text fill="#000000" font-family="sans-serif" font-size="14" lengthAdjust="spacing" textLength="83" x="253.1751" y="2569.9366">devoluciones</text></g><g id="elem_UC16"><ellipse cx="294.5066" cy="864.7013" fill="#D89A6A" rx="84.0066" ry="19.2013" style="stroke:#2F4F4F;stroke-width:0.5;"/><text fill="#000000" font-family="sans-serif" font-size="14" lengthAdjust="spacing" textLength="124" x="232.5066" y="868.4298">Ver ruta de entrega</text></g><g id="elem_UC17"><ellipse cx="294.3675" cy="981.4034" fill="#D89A6A" rx="79.3675" ry="27.9034" style="stroke:#2F4F4F;stroke-width:0.5;"/><text fill="#000000" font-family="sans-serif" font-size="14" lengthAdjust="spacing" textLength="96" x="246.3675" y="976.3272">Aceptar pedido</text><text fill="#000000" font-family="sans-serif" font-size="14" lengthAdjust="spacing" textLength="82" x="253.3675" y="993.9366">para entrega</text></g><g id="elem_UC18"><ellipse cx="294.3187" cy="621.4079" fill="#D89A6A" rx="92.8187" ry="27.9079" style="stroke:#2F4F4F;stroke-width:0.5;"/><text fill="#000000" font-family="sans-serif" font-size="14" lengthAdjust="spacing" textLength="115" x="235.6145" y="616.6657">Confirmar entrega</text><text fill="#000000" font-family="sans-serif" font-size="14" lengthAdjust="spacing" textLength="44" x="271.1145" y="634.275">exitosa</text></g><g id="elem_UC19"><ellipse cx="294.5599" cy="747.4034" fill="#D89A6A" rx="88.5599" ry="27.9034" style="stroke:#2F4F4F;stroke-width:0.5;"/><text fill="#000000" font-family="sans-serif" font-size="14" lengthAdjust="spacing" textLength="109" x="240.0599" y="742.3272">Reportar entrega</text><text fill="#000000" font-family="sans-serif" font-size="14" lengthAdjust="spacing" textLength="37" x="276.0599" y="759.9366">fallida</text></g><g id="elem_UC20"><ellipse cx="294.7427" cy="1222.6485" fill="#D89A6A" rx="73.7427" ry="17.1485" style="stroke:#2F4F4F;stroke-width:0.5;"/><text fill="#000000" font-family="sans-serif" font-size="14" lengthAdjust="spacing" textLength="98" x="242.7427" y="1227.1651">Realizar pedido</text></g><g id="elem_UC21"><ellipse cx="294.3528" cy="1107.4034" fill="#D89A6A" rx="87.8528" ry="27.9034" style="stroke:#2F4F4F;stroke-width:0.5;"/><text fill="#000000" font-family="sans-serif" font-size="14" lengthAdjust="spacing" textLength="108" x="240.3528" y="1102.3272">Consultar estado</text><text fill="#000000" font-family="sans-serif" font-size="14" lengthAdjust="spacing" textLength="63" x="262.8528" y="1119.9366">de pedido</text></g><g id="elem_UC22"><ellipse cx="294.4828" cy="1927.4034" fill="#D89A6A" rx="60.9828" ry="27.9034" style="stroke:#2F4F4F;stroke-width:0.5;"/><text fill="#000000" font-family="sans-serif" font-size="14" lengthAdjust="spacing" textLength="67" x="260.9828" y="1922.3272">Programar</text><text fill="#000000" font-family="sans-serif" font-size="14" lengthAdjust="spacing" textLength="70" x="259.4828" y="1939.9366">producci&#243;n</text></g><g id="elem_UC23"><ellipse cx="294.6249" cy="2053.4034" fill="#D89A6A" rx="75.1249" ry="27.9034" style="stroke:#2F4F4F;stroke-width:0.5;"/><text fill="#000000" font-family="sans-serif" font-size="14" lengthAdjust="spacing" textLength="85" x="252.1249" y="2048.3272">Registrar lote</text><text fill="#000000" font-family="sans-serif" font-size="14" lengthAdjust="spacing" textLength="90" x="249.6249" y="2065.9366">de producci&#243;n</text></g><g id="elem_UC24"><ellipse cx="562.6965" cy="1810.7393" fill="#D89A6A" rx="91.6965" ry="20.7393" style="stroke:#2F4F4F;stroke-width:0.5;"/><text fill="#000000" font-family="sans-serif" font-size="14" lengthAdjust="spacing" textLength="142" x="491.6965" y="1814.4678">Recuperar contrase&#241;a</text></g><!--entity admin--><g id="elem_admin"><ellipse cx="62" cy="1559" fill="#FFC0CB" rx="8" ry="8" style="stroke:#181818;stroke-width:0.5;"/><path d="M62,1567 L62,1594 M49,1575 L75,1575 M62,1594 L49,1609 M62,1594 L75,1609 " fill="none" style="stroke:#181818;stroke-width:0.5;"/><text fill="#000000" font-family="sans-serif" font-size="14" lengthAdjust="spacing" textLength="87" x="18.5" y="1625.0332">Administrador</text></g><!--entity inventory--><g id="elem_inventory"><ellipse cx="62" cy="1960" fill="#90EE90" rx="8" ry="8" style="stroke:#181818;stroke-width:0.5;"/><path d="M62,1968 L62,1995 M49,1976 L75,1976 M62,1995 L49,2010 M62,1995 L75,2010 " fill="none" style="stroke:#181818;stroke-width:0.5;"/><text fill="#000000" font-family="sans-serif" font-size="14" lengthAdjust="spacing" textLength="112" x="6" y="2026.0332">Jefe de inventario</text></g><!--entity dispatcher--><g id="elem_dispatcher"><ellipse cx="62" cy="2223" fill="#FFFFE0" rx="8" ry="8" style="stroke:#181818;stroke-width:0.5;"/><path d="M62,2231 L62,2258 M49,2239 L75,2239 M62,2258 L49,2273 M62,2258 L75,2273 " fill="none" style="stroke:#181818;stroke-width:0.5;"/><text fill="#000000" font-family="sans-serif" font-size="14" lengthAdjust="spacing" textLength="85" x="19.5" y="2289.0332">Despachador</text></g><!--entity deliveryGuy--><g id="elem_deliveryGuy"><ellipse cx="62" cy="951" fill="#E0FFFF" rx="8" ry="8" style="stroke:#181818;stroke-width:0.5;"/><path d="M62,959 L62,986 M49,967 L75,967 M62,986 L49,1001 M62,986 L75,1001 " fill="none" style="stroke:#181818;stroke-width:0.5;"/><text fill="#000000" font-family="sans-serif" font-size="14" lengthAdjust="spacing" textLength="67" x="28.5" y="1017.0332">Repartidor</text></g><!--entity customer--><g id="elem_customer"><ellipse cx="62" cy="1146" fill="#ADD8E6" rx="8" ry="8" style="stroke:#181818;stroke-width:0.5;"/><path d="M62,1154 L62,1181 M49,1162 L75,1162 M62,1181 L49,1196 M62,1181 L75,1196 " fill="none" style="stroke:#181818;stroke-width:0.5;"/><text fill="#000000" font-family="sans-serif" font-size="14" lengthAdjust="spacing" textLength="44" x="40" y="1212.0332">Cliente</text></g><g id="elem_A&#241;adir producto\nsolicitado a env&#237;o"><ellipse cx="562.5599" cy="387.4034" fill="#D89A6A" rx="88.5599" ry="27.9034" style="stroke:#2F4F4F;stroke-width:0.5;"/><text fill="#000000" font-family="sans-serif" font-size="14" lengthAdjust="spacing" textLength="101" x="512.0599" y="382.3272">A&#241;adir producto</text><text fill="#000000" font-family="sans-serif" font-size="14" lengthAdjust="spacing" textLength="109" x="508.0599" y="399.9366">solicitado a env&#237;o</text></g><g id="elem_A&#241;adir direcci&#243;n\nde env&#237;o"><ellipse cx="562.6102" cy="513.4034" fill="#D89A6A" rx="83.6102" ry="27.9034" style="stroke:#2F4F4F;stroke-width:0.5;"/><text fill="#000000" font-family="sans-serif" font-size="14" lengthAdjust="spacing" textLength="102" x="511.6102" y="508.3272">A&#241;adir direcci&#243;n</text><text fill="#000000" font-family="sans-serif" font-size="14" lengthAdjust="spacing" textLength="54" x="535.6102" y="525.9366">de env&#237;o</text></g><g id="elem_A&#241;adir nombre\ne ID de pedido"><ellipse cx="562.7462" cy="147.4034" fill="#D89A6A" rx="77.2462" ry="27.9034" style="stroke:#2F4F4F;stroke-width:0.5;"/><text fill="#000000" font-family="sans-serif" font-size="14" lengthAdjust="spacing" textLength="93" x="516.2462" y="142.3272">A&#241;adir nombre</text><text fill="#000000" font-family="sans-serif" font-size="14" lengthAdjust="spacing" textLength="92" x="516.7462" y="159.9366">e ID de pedido</text></g><g id="elem_GMN69"><path d="M497,246 L497,288.7031 L628,288.7031 L628,256 L618,246 L497,246 " fill="#FEFFDD" style="stroke:#181818;stroke-width:0.5;"/><path d="M618,246 L618,256 L628,256 L618,246 " fill="#FEFFDD" style="stroke:#181818;stroke-width:1.0;"/><text fill="#000000" font-family="sans-serif" font-size="13" lengthAdjust="spacing" textLength="66" x="503" y="264.4951">Proceso de</text><text fill="#000000" font-family="sans-serif" font-size="13" lengthAdjust="spacing" textLength="110" x="503" y="280.8467">creaci&#243;n de factura</text></g><g id="elem_GMN72"><path d="M496,6 L496,48.7031 L629,48.7031 L629,16 L619,6 L496,6 " fill="#FEFFDD" style="stroke:#181818;stroke-width:0.5;"/><path d="M619,6 L619,16 L629,16 L619,6 " fill="#FEFFDD" style="stroke:#181818;stroke-width:1.0;"/><text fill="#000000" font-family="sans-serif" font-size="13" lengthAdjust="spacing" textLength="112" x="502" y="24.4951">Actualiza inventario</text><text fill="#000000" font-family="sans-serif" font-size="13" lengthAdjust="spacing" textLength="100" x="502" y="40.8467">autom&#225;ticamente</text></g><!--link admin to UC1--><g id="link_admin_UC1"><path d="M105.87,1623 C152.01,1623 218,1623 218,1623 C218,1623 218,1773.03 218,1804.68 " fill="none" id="admin-UC1" style="stroke:#0000FF;stroke-width:1.0;"/></g><!--link admin to UC2--><g id="link_admin_UC2"><path d="M105.73,1583.9 C134.93,1583.9 174.3,1583.9 209.53,1583.9 " fill="none" id="admin-UC2" style="stroke:#0000FF;stroke-width:1.0;"/></g><!--link admin to UC3--><g id="link_admin_UC3"><path d="M62,1628.53 C62,1660.71 62,1701.1 62,1701.1 C62,1701.1 153.96,1701.1 222.21,1701.1 " fill="none" id="admin-UC3" style="stroke:#0000FF;stroke-width:1.0;"/></g><!--link admin to UC9--><g id="link_admin_UC9"><path d="M103,1550.32 C103,1513.34 103,1463.5 103,1463.5 C103,1463.5 154.69,1463.5 204.36,1463.5 " fill="none" id="admin-UC9" style="stroke:#0000FF;stroke-width:1.0;"/></g><!--link admin to UC12--><g id="link_admin_UC12"><path d="M99,1550.4 C99,1479.62 99,1337.5 99,1337.5 C99,1337.5 148.64,1337.5 197.9,1337.5 " fill="none" id="admin-UC12" style="stroke:#0000FF;stroke-width:1.0;"/></g><!--link inventory to UC1--><g id="link_inventory_UC1"><path d="M115,1951.44 C115,1898.5 115,1810.5 115,1810.5 C115,1810.5 166.22,1810.5 213.94,1810.5 " fill="none" id="inventory-UC1" style="stroke:#008000;stroke-width:1.0;"/></g><!--link inventory to UC2--><g id="link_inventory_UC2"><path d="M112,1951.14 C112,1851.13 112,1595.1 112,1595.1 C112,1595.1 162,1595.1 209.66,1595.1 " fill="none" id="inventory-UC2" style="stroke:#008000;stroke-width:1.0;"/></g><!--link inventory to UC3--><g id="link_inventory_UC3"><path d="M114,1951.21 C114,1873.55 114,1707.9 114,1707.9 C114,1707.9 172.11,1707.9 222.38,1707.9 " fill="none" id="inventory-UC3" style="stroke:#008000;stroke-width:1.0;"/></g><!--link inventory to UC4--><g id="link_inventory_UC4"><path d="M108,2029.84 C108,2131.16 108,2393.17 108,2393.17 C108,2393.17 538.81,2393.17 737.39,2393.17 " fill="none" id="inventory-UC4" style="stroke:#008000;stroke-width:1.0;"/></g><!--link inventory to UC5--><g id="link_inventory_UC5"><path d="M113,2029.66 C113,2085.02 113,2179.5 113,2179.5 C113,2179.5 163.66,2179.5 211.45,2179.5 " fill="none" id="inventory-UC5" style="stroke:#008000;stroke-width:1.0;"/></g><!--link inventory to UC6--><g id="link_inventory_UC6"><path d="M110,2029.61 C110,2109.72 110,2285 110,2285 C110,2285 184.8,2285 239.14,2285 " fill="none" id="inventory-UC6" style="stroke:#008000;stroke-width:1.0;"/></g><!--link inventory to UC22--><g id="link_inventory_UC22"><path d="M117,1951.19 C117,1937.5 117,1925.5 117,1925.5 C117,1925.5 182.07,1925.5 233.41,1925.5 " fill="none" id="inventory-UC22" style="stroke:#008000;stroke-width:1.0;"/></g><!--link inventory to UC23--><g id="link_inventory_UC23"><path d="M116,2029.81 C116,2043.5 116,2055.5 116,2055.5 C116,2055.5 170.73,2055.5 219.58,2055.5 " fill="none" id="inventory-UC23" style="stroke:#008000;stroke-width:1.0;"/></g><!--link dispatcher to UC1--><g id="link_dispatcher_UC1"><path d="M104.54,2239.5 C137.64,2239.5 178,2239.5 178,2239.5 C178,2239.5 178,1819.75 178,1819.75 C178,1819.75 199.9,1819.75 224.71,1819.75 " fill="none" id="dispatcher-UC1" style="stroke:#FFA500;stroke-width:1.0;"/></g><!--link dispatcher to UC2--><g id="link_dispatcher_UC2"><path d="M104.89,2223.5 C122.13,2223.5 138,2223.5 138,2223.5 C138,2223.5 138,1606.3 138,1606.3 C138,1606.3 183.15,1606.3 224.95,1606.3 " fill="none" id="dispatcher-UC2" style="stroke:#FFA500;stroke-width:1.0;"/></g><!--link dispatcher to UC3--><g id="link_dispatcher_UC3"><path d="M104.67,2231.5 C130.31,2231.5 158,2231.5 158,2231.5 C158,2231.5 158,1714.7 158,1714.7 C158,1714.7 198.53,1714.7 235.42,1714.7 " fill="none" id="dispatcher-UC3" style="stroke:#FFA500;stroke-width:1.0;"/></g><!--link dispatcher to UC13--><g id="link_dispatcher_UC13"><path d="M104.67,2263.5 C194.5,2263.5 403.18,2263.5 504.81,2263.5 " fill="none" id="dispatcher-UC13" style="stroke:#FFA500;stroke-width:1.0;"/></g><!--link dispatcher to UC14--><g id="link_dispatcher_UC14"><path d="M77,2292.56 C77,2344.96 77,2431.5 77,2431.5 C77,2431.5 149.94,2431.5 211.34,2431.5 " fill="none" id="dispatcher-UC14" style="stroke:#FFA500;stroke-width:1.0;"/></g><!--link dispatcher to UC15--><g id="link_dispatcher_UC15"><path d="M48,2292.62 C48,2374.73 48,2557.5 48,2557.5 C48,2557.5 151.33,2557.5 224.19,2557.5 " fill="none" id="dispatcher-UC15" style="stroke:#FFA500;stroke-width:1.0;"/></g><!--link deliveryGuy to UC1--><g id="link_deliveryGuy_UC1"><path d="M95.91,1017.75 C102.81,1017.75 108,1017.75 108,1017.75 C108,1017.75 108,1801.25 108,1801.25 C108,1801.25 171.6,1801.25 224.52,1801.25 " fill="none" id="deliveryGuy-UC1" style="stroke:#00FFFF;stroke-width:1.0;"/></g><!--link deliveryGuy to UC2--><g id="link_deliveryGuy_UC2"><path d="M95.76,1012.25 C104.25,1012.25 111,1012.25 111,1012.25 C111,1012.25 111,1572.7 111,1572.7 C111,1572.7 173.16,1572.7 225.13,1572.7 " fill="none" id="deliveryGuy-UC2" style="stroke:#00FFFF;stroke-width:1.0;"/></g><!--link deliveryGuy to UC3--><g id="link_deliveryGuy_UC3"><path d="M95.66,1015 C103.19,1015 109,1015 109,1015 C109,1015 109,1694.3 109,1694.3 C109,1694.3 181.23,1694.3 235.55,1694.3 " fill="none" id="deliveryGuy-UC3" style="stroke:#00FFFF;stroke-width:1.0;"/></g><!--link deliveryGuy to UC16--><g id="link_deliveryGuy_UC16"><path d="M79,942.22 C79,908.23 79,864.5 79,864.5 C79,864.5 149.81,864.5 210.26,864.5 " fill="none" id="deliveryGuy-UC16" style="stroke:#00FFFF;stroke-width:1.0;"/></g><!--link deliveryGuy to UC17--><g id="link_deliveryGuy_UC17"><path d="M95.81,981.5 C126.92,981.5 174.25,981.5 214.92,981.5 " fill="none" id="deliveryGuy-UC17" style="stroke:#00FFFF;stroke-width:1.0;"/></g><!--link deliveryGuy to UC18--><g id="link_deliveryGuy_UC18"><path d="M46,942.29 C46,848.98 46,621.5 46,621.5 C46,621.5 130.75,621.5 201.26,621.5 " fill="none" id="deliveryGuy-UC18" style="stroke:#00FFFF;stroke-width:1.0;"/></g><!--link deliveryGuy to UC19--><g id="link_deliveryGuy_UC19"><path d="M62,942.33 C62,875.72 62,747.5 62,747.5 C62,747.5 140.23,747.5 205.94,747.5 " fill="none" id="deliveryGuy-UC19" style="stroke:#00FFFF;stroke-width:1.0;"/></g><!--link customer to UC20--><g id="link_customer_UC20"><path d="M84.29,1210.5 C120.44,1210.5 192.77,1210.5 242.4,1210.5 " fill="none" id="customer-UC20" style="stroke:#0000FF;stroke-width:1.0;"/></g><!--link customer to UC21--><g id="link_customer_UC21"><path d="M84.1,1171.5 C126.26,1171.5 214,1171.5 214,1171.5 C214,1171.5 214,1137.35 214,1118.94 " fill="none" id="customer-UC21" style="stroke:#0000FF;stroke-width:1.0;"/></g><!--reverse link UC1 to UC24--><g id="link_UC1_UC24"><path d="M381.27,1810.5 C411.33,1810.5 439.65,1810.5 470.62,1810.5 " fill="none" id="UC1-backto-UC24" style="stroke:#000000;stroke-width:1.0;stroke-dasharray:7.0,7.0;"/><polygon fill="#000000" points="375.27,1810.5,384.27,1814.5,380.27,1810.5,384.27,1806.5,375.27,1810.5" style="stroke:#000000;stroke-width:1.0;"/><text fill="#000000" font-family="sans-serif" font-size="13" lengthAdjust="spacing" textLength="53" x="368.95" y="1824.9951">&#171;extend&#187;</text></g><!--reverse link UC9 to UC10--><g id="link_UC9_UC10"><path d="M385.46,1472.83 C473.08,1472.83 591,1472.83 591,1472.83 C591,1472.83 591,1486.46 591,1499.98 " fill="none" id="UC9-backto-UC10" style="stroke:#000000;stroke-width:1.0;stroke-dasharray:7.0,7.0;"/><polygon fill="#000000" points="379.46,1472.83,388.46,1476.83,384.46,1472.83,388.46,1468.83,379.46,1472.83" style="stroke:#000000;stroke-width:1.0;"/><text fill="#000000" font-family="sans-serif" font-size="13" lengthAdjust="spacing" textLength="53" x="444.81" y="1487.3251">&#171;extend&#187;</text></g><!--reverse link UC9 to UC11--><g id="link_UC9_UC11"><path d="M385.63,1454.17 C454.81,1454.17 535,1454.17 535,1454.17 C535,1454.17 535,1440.54 535,1427.02 " fill="none" id="UC9-backto-UC11" style="stroke:#000000;stroke-width:1.0;stroke-dasharray:7.0,7.0;"/><polygon fill="#000000" points="379.63,1454.17,388.63,1458.17,384.63,1454.17,388.63,1450.17,379.63,1454.17" style="stroke:#000000;stroke-width:1.0;"/><text fill="#000000" font-family="sans-serif" font-size="13" lengthAdjust="spacing" textLength="53" x="416.89" y="1468.6651">&#171;extend&#187;</text></g><!--link UC14 to A?adir producto\nsolicitado a env?o--><g id="link_UC14_A&#241;adir producto\nsolicitado a env&#237;o"><path d="M368.32,2418.5 C398.3,2418.5 426,2418.5 426,2418.5 C426,2418.5 426,387.5 426,387.5 C426,387.5 441.67,387.5 467.74,387.5 " fill="none" id="UC14-to-A&#241;adir producto\nsolicitado a env&#237;o" style="stroke:#000000;stroke-width:1.0;stroke-dasharray:7.0,7.0;"/><polygon fill="#000000" points="473.74,387.5,464.74,383.5,468.74,387.5,464.74,391.5,473.74,387.5" style="stroke:#000000;stroke-width:1.0;"/><text fill="#000000" font-family="sans-serif" font-size="13" lengthAdjust="spacing" textLength="55" x="370" y="1422.4651">&#171;include&#187;</text></g><!--link UC14 to A?adir direcci?n\nde env?o--><g id="link_UC14_A&#241;adir direcci&#243;n\nde env&#237;o"><path d="M374.08,2423.5 C406.72,2423.5 437,2423.5 437,2423.5 C437,2423.5 437,513.5 437,513.5 C437,513.5 449.77,513.5 472.79,513.5 " fill="none" id="UC14-to-A&#241;adir direcci&#243;n\nde env&#237;o" style="stroke:#000000;stroke-width:1.0;stroke-dasharray:7.0,7.0;"/><polygon fill="#000000" points="478.79,513.5,469.79,509.5,473.79,513.5,469.79,517.5,478.79,513.5" style="stroke:#000000;stroke-width:1.0;"/><text fill="#000000" font-family="sans-serif" font-size="13" lengthAdjust="spacing" textLength="55" x="381" y="1493.5551">&#171;include&#187;</text></g><!--link UC14 to A?adir nombre\ne ID de pedido--><g id="link_UC14_A&#241;adir nombre\ne ID de pedido"><path d="M342.09,2408.5 C371.24,2408.5 403,2408.5 403,2408.5 C403,2408.5 403,147.5 403,147.5 C403,147.5 438.45,147.5 479.09,147.5 " fill="none" id="UC14-to-A&#241;adir nombre\ne ID de pedido" style="stroke:#000000;stroke-width:1.0;stroke-dasharray:7.0,7.0;"/><polygon fill="#000000" points="485.09,147.5,476.09,143.5,480.09,147.5,476.09,151.5,485.09,147.5" style="stroke:#000000;stroke-width:1.0;"/><text fill="#000000" font-family="sans-serif" font-size="13" lengthAdjust="spacing" textLength="55" x="347" y="1281.9051">&#171;include&#187;</text></g><!--link UC13 to UC4--><g id="link_UC13_UC4"><path d="M563,2271.7 C563,2312.41 563,2382.83 563,2382.83 C563,2382.83 670.2,2382.83 750.68,2382.83 " fill="none" id="UC13-to-UC4" style="stroke:#000000;stroke-width:1.0;stroke-dasharray:7.0,7.0;"/><polygon fill="#000000" points="756.68,2382.83,747.68,2378.83,751.68,2382.83,747.68,2386.83,756.68,2382.83" style="stroke:#000000;stroke-width:1.0;"/><text fill="#000000" font-family="sans-serif" font-size="13" lengthAdjust="spacing" textLength="55" x="548.27" y="2397.3251">&#171;include&#187;</text></g><!--link UC20 to UC13--><g id="link_UC20_UC13"><path d="M368.13,1222.5 C407.92,1222.5 449,1222.5 449,1222.5 C449,1222.5 449,2255.5 449,2255.5 C449,2255.5 460.84,2255.5 482.38,2255.5 " fill="none" id="UC20-to-UC13" style="stroke:#000000;stroke-width:1.0;stroke-dasharray:7.0,7.0;"/><polygon fill="#000000" points="488.38,2255.5,479.38,2251.5,483.38,2255.5,479.38,2259.5,488.38,2255.5" style="stroke:#000000;stroke-width:1.0;"/><text fill="#000000" font-family="sans-serif" font-size="13" lengthAdjust="spacing" textLength="55" x="393" y="1732.7451">&#171;include&#187;</text></g><!--link UC14 to GMN69--><g id="link_UC14_GMN69"><path d="M358.1,2413.5 C386.64,2413.5 414,2413.5 414,2413.5 C414,2413.5 414,267.5 414,267.5 C414,267.5 457.15,267.5 496.93,267.5 " fill="none" id="UC14-GMN69" style="stroke:#000000;stroke-width:1.0;stroke-dasharray:7.0,7.0;"/></g><!--link UC13 to GMN72--><g id="link_UC13_GMN72"><path d="M481.24,2247.5 C468.8,2247.5 460,2247.5 460,2247.5 C460,2247.5 460,27.5 460,27.5 C460,27.5 476.27,27.5 495.85,27.5 " fill="none" id="UC13-GMN72" style="stroke:#000000;stroke-width:1.0;stroke-dasharray:7.0,7.0;"/></g><!--SRC=[ZLRDRkCs4BxhAOZDOTl31hRiEB4H14YSDcYnRHUxQ8kYxe6cHWvXcXH8oXkts8Vf0-HGz17yOfqX9LcA8wC-MVDzyyFv8nNaddd3h5mzUfP92y9BenEtbhhWbc-OaXhyhW1ch7yqBK2R31mKx7BG4bgkroIy6YHlsJtaKaiXz_zgbW43vwKohiKk7GZkWFsLC7R7nNfbJQcpkL76ihFiQiedd11ZCx1HUi_j-fFY7Xuito5sQwtvN2aCme-4mXjxKYiGNZZyzH6uJxwq3uF9u7gbUWBCHv0kivC1VZdE0YVVu9BPRRP1kVEMPyRE67UCauITVP1wdSo-Xno8B_KMjETMci29dyRksDbxgjc31T39x1vSmSLZOogJ-Et58zYAzniePJudiu-0P_EouO6IMx2xXx8sEDznj3TN4jr0u8ZIURDfBDsf4X8yroUC7JQS5LPg8GkkaaE-tjGW7k07ZdyjkxF0ipSXas_Pd3j3ph4331DcKshC26DVtPOUtKh1BI8b7VfhYk3d-J2WGW0ccd752gv1BJHQ44PxQrJ5IudthTHSoJ_HY0D7UQ_0KSA2z-FKajRSQ5Sg_6p95nhBLVBQ-fXu7s4LgcQPBc6BbCAQhCIgLgIB62gfnHYy4UiGwWlYf0gdqmYa_00QR8WZDtO3BYYlQ7mEPvaIyQUb9oesQe7J2O5t2BvEtQ2FciMcCQvc3gDtHolWK0BqlsC5s8rq1sfQ1TzgF5B-O8q0ryeDPDXhjTAeVRgSKcjvY2I4NBF6dIW8tnfL2lo2nlr5vVxGpgJq2nsmzA7jqAA5LMDq4gi21HKuHhK8O_wIU5drGYxj1gaLkj3m9Brn3UqgjW8biytAkL8oQrZJ9BPxdAQeKhL59pFfeDk1U7XE0LBJT7Z3v7X-i08Wzi-v5566iy5nJFRFlAh82fSP9JBsdsXrKPfsErgPgZLUeOwYws-Ui95SA4RK5MKHwXa64RVv_f_w-EaO5s12HL8ybe_2mokWMO9nuxtx_Mo9I-MFTs7GZsNfAxBHAxBfQ_RI93diJ4HMj30hLpr0sWUC-e1n7t3H1qnwdVTwfmgqzZfY1g_RLPstNYZjXqOd39x2nYUm2uooTQiWAl1AgOFiGT9UPDHlRT8FNVP3L_qGZcjpsNKQSD0Z7nwtDyJvmC59q2AxFZyFay1cxFewODdD3IBJ2XaEUf5X5pdoXDUkAXjFOtP-VeCh3iSFdt7DNRFGpYXyVT0-ORJijljdt2PaEUXd49o-L0ylmJ3-OHtyNpLjDakB6mJOT_UijRoEz4P13mVd24e75OISBeO9-D5ut2pmLE2Hk9TRxXADAwjwlfeyz2QgnMl8O0WBBV3XqRo-gaidQYsDnvfMQkIjkRMxJu0IMVk_wLco2MlyFm00]--></g></svg>