<?xml version="1.0" encoding="us-ascii" standalone="no"?><svg xmlns="http://www.w3.org/2000/svg" xmlns:xlink="http://www.w3.org/1999/xlink" contentStyleType="text/css" height="373px" preserveAspectRatio="none" style="width:3794px;height:373px;background:#FFFFFF;" version="1.1" viewBox="0 0 3794 373" width="3794px" zoomAndPan="magnify"><defs/><g><!--cluster Sistema de Master Bread--><g id="cluster_Sistema de Master Bread"><rect fill="#F0F8FF" height="237" rx="2.5" ry="2.5" style="stroke:#2F4F4F;stroke-width:1.0;" width="3022" x="7" y="130.5"/><text fill="#000000" font-family="sans-serif" font-size="14" font-weight="bold" lengthAdjust="spacing" textLength="176" x="1430" y="147.0332">Sistema de Master Bread</text></g><g id="elem_UC1"><ellipse cx="1839.0887" cy="196.0177" fill="#ADD8E6" rx="68.0887" ry="16.0177" style="stroke:#2F4F4F;stroke-width:0.5;"/><text fill="#000000" font-family="sans-serif" font-size="14" lengthAdjust="spacing" textLength="82" x="1795.0887" y="200.5343">Iniciar sesi&#243;n</text></g><g id="elem_UC2"><ellipse cx="1680.9968" cy="196.0429" fill="#ADD8E6" rx="54.9968" ry="15.5429" style="stroke:#2F4F4F;stroke-width:0.5;"/><text fill="#000000" font-family="sans-serif" font-size="14" lengthAdjust="spacing" textLength="61" x="1647.4968" y="200.5595">Ver men&#250;</text></g><g id="elem_UC3"><ellipse cx="1520.957" cy="195.7914" fill="#ADD8E6" rx="69.457" ry="16.2914" style="stroke:#2F4F4F;stroke-width:0.5;"/><text fill="#000000" font-family="sans-serif" font-size="14" lengthAdjust="spacing" textLength="86" x="1474.957" y="200.308">Cerrar sesi&#243;n</text></g><g id="elem_UC4"><ellipse cx="1346.1531" cy="195.9306" fill="#ADD8E6" rx="70.1531" ry="16.4306" style="stroke:#2F4F4F;stroke-width:0.5;"/><text fill="#000000" font-family="sans-serif" font-size="14" lengthAdjust="spacing" textLength="88" x="1299.1531" y="200.4472">Ver inventario</text></g><g id="elem_UC5"><ellipse cx="914.1819" cy="196.1364" fill="#ADD8E6" rx="78.6819" ry="18.1364" style="stroke:#2F4F4F;stroke-width:0.5;"/><text fill="#000000" font-family="sans-serif" font-size="14" lengthAdjust="spacing" textLength="111" x="857.0947" y="200.3083">Agregar producto</text></g><g id="elem_UC6"><ellipse cx="1133.8456" cy="196.1691" fill="#ADD8E6" rx="106.3456" ry="23.6691" style="stroke:#2F4F4F;stroke-width:0.5;"/><text fill="#000000" font-family="sans-serif" font-size="14" lengthAdjust="spacing" textLength="175" x="1046.3456" y="199.8976">Editar cantidad de producto</text></g><g id="elem_UC7"><ellipse cx="147.7727" cy="195.7545" fill="#ADD8E6" rx="124.2727" ry="27.2545" style="stroke:#2F4F4F;stroke-width:0.5;"/><text fill="#000000" font-family="sans-serif" font-size="14" lengthAdjust="spacing" textLength="214" x="40.7727" y="199.4831">Generar reporte de env&#237;os diarios</text></g><g id="elem_UC8"><ellipse cx="420.2192" cy="195.9438" fill="#ADD8E6" rx="112.7192" ry="24.9438" style="stroke:#2F4F4F;stroke-width:0.5;"/><text fill="#000000" font-family="sans-serif" font-size="14" lengthAdjust="spacing" textLength="189" x="325.7192" y="199.6724">Generar reporte de inventario</text></g><g id="elem_UC9"><ellipse cx="683.9339" cy="196.0868" fill="#ADD8E6" rx="115.9339" ry="25.5868" style="stroke:#2F4F4F;stroke-width:0.5;"/><text fill="#000000" font-family="sans-serif" font-size="14" lengthAdjust="spacing" textLength="196" x="585.9339" y="199.8153">Generar reporte de despachos</text></g><g id="elem_UC10"><ellipse cx="2018.855" cy="196.171" fill="#ADD8E6" rx="76.355" ry="17.671" style="stroke:#2F4F4F;stroke-width:0.5;"/><text fill="#000000" font-family="sans-serif" font-size="14" lengthAdjust="spacing" textLength="105" x="1963.6233" y="200.6255">Registrar pedido</text></g><g id="elem_UC11"><ellipse cx="2199.7688" cy="196.1538" fill="#ADD8E6" rx="68.7688" ry="16.1538" style="stroke:#2F4F4F;stroke-width:0.5;"/><text fill="#000000" font-family="sans-serif" font-size="14" lengthAdjust="spacing" textLength="84" x="2154.7688" y="200.6704">Crear factura</text></g><g id="elem_UC12"><ellipse cx="2381.1203" cy="195.8241" fill="#ADD8E6" rx="77.1203" ry="17.8241" style="stroke:#2F4F4F;stroke-width:0.5;"/><text fill="#000000" font-family="sans-serif" font-size="14" lengthAdjust="spacing" textLength="107" x="2325.2783" y="200.1856">Reclamar pedido</text></g><g id="elem_UC13"><ellipse cx="2600.7512" cy="195.8502" fill="#ADD8E6" rx="107.2512" ry="23.8502" style="stroke:#2F4F4F;stroke-width:0.5;"/><text fill="#000000" font-family="sans-serif" font-size="14" lengthAdjust="spacing" textLength="177" x="2512.2512" y="199.5788">Marcar pedido como exitoso</text></g><g id="elem_UC14"><ellipse cx="2878.0829" cy="195.8166" fill="#ADD8E6" rx="134.5829" ry="29.3166" style="stroke:#2F4F4F;stroke-width:0.5;"/><text fill="#000000" font-family="sans-serif" font-size="14" lengthAdjust="spacing" textLength="236" x="2760.0829" y="199.5451">Marcar pedido como fallido o err&#243;neo</text></g><g id="elem_UC15"><ellipse cx="1946.1965" cy="331.2393" fill="#ADD8E6" rx="91.6965" ry="20.7393" style="stroke:#2F4F4F;stroke-width:0.5;"/><text fill="#000000" font-family="sans-serif" font-size="14" lengthAdjust="spacing" textLength="142" x="1875.1965" y="334.9678">Recuperar contrase&#241;a</text></g><g id="elem_UC16"><ellipse cx="1754.8631" cy="331.109" fill="#ADD8E6" rx="63.8631" ry="15.609" style="stroke:#2F4F4F;stroke-width:0.5;"/><text fill="#000000" font-family="sans-serif" font-size="14" lengthAdjust="spacing" textLength="73" x="1715.3631" y="335.6256">Registrarse</text></g><!--entity admin--><g id="elem_admin"><ellipse cx="1014" cy="14" fill="#FFC0CB" rx="8" ry="8" style="stroke:#181818;stroke-width:0.5;"/><path d="M1014,22 L1014,49 M1001,30 L1027,30 M1014,49 L1001,64 M1014,49 L1027,64 " fill="none" style="stroke:#181818;stroke-width:0.5;"/><text fill="#000000" font-family="sans-serif" font-size="14" lengthAdjust="spacing" textLength="87" x="970.5" y="80.0332">Administrador</text></g><!--entity inventory--><g id="elem_inventory"><ellipse cx="1412" cy="14" fill="#90EE90" rx="8" ry="8" style="stroke:#181818;stroke-width:0.5;"/><path d="M1412,22 L1412,49 M1399,30 L1425,30 M1412,49 L1399,64 M1412,49 L1425,64 " fill="none" style="stroke:#181818;stroke-width:0.5;"/><text fill="#000000" font-family="sans-serif" font-size="14" lengthAdjust="spacing" textLength="112" x="1356" y="80.0332">Jefe de inventario</text></g><!--entity dispatcher--><g id="elem_dispatcher"><ellipse cx="1845" cy="14" fill="#FFFFE0" rx="8" ry="8" style="stroke:#181818;stroke-width:0.5;"/><path d="M1845,22 L1845,49 M1832,30 L1858,30 M1845,49 L1832,64 M1845,49 L1858,64 " fill="none" style="stroke:#181818;stroke-width:0.5;"/><text fill="#000000" font-family="sans-serif" font-size="14" lengthAdjust="spacing" textLength="85" x="1802.5" y="80.0332">Despachador</text></g><!--entity deliveryGuy--><g id="elem_deliveryGuy"><ellipse cx="2292" cy="14" fill="#E0FFFF" rx="8" ry="8" style="stroke:#181818;stroke-width:0.5;"/><path d="M2292,22 L2292,49 M2279,30 L2305,30 M2292,49 L2279,64 M2292,49 L2305,64 " fill="none" style="stroke:#181818;stroke-width:0.5;"/><text fill="#000000" font-family="sans-serif" font-size="14" lengthAdjust="spacing" textLength="67" x="2258.5" y="80.0332">Repartidor</text></g><g id="elem_A&#241;adir producto solicitado a env&#237;o"><ellipse cx="3169.7727" cy="330.7545" fill="#ADD8E6" rx="124.2727" ry="27.2545" style="stroke:#2F4F4F;stroke-width:0.5;"/><text fill="#000000" font-family="sans-serif" font-size="14" lengthAdjust="spacing" textLength="214" x="3062.7727" y="334.4831">A&#241;adir producto solicitado a env&#237;o</text></g><g id="elem_A&#241;adir direcci&#243;n de env&#237;o"><ellipse cx="3429.113" cy="330.8226" fill="#ADD8E6" rx="99.613" ry="22.3226" style="stroke:#2F4F4F;stroke-width:0.5;"/><text fill="#000000" font-family="sans-serif" font-size="14" lengthAdjust="spacing" textLength="160" x="3349.113" y="334.5511">A&#241;adir direcci&#243;n de env&#237;o</text></g><g id="elem_A&#241;adir nombre e ID de pedido"><ellipse cx="3676.2192" cy="330.9438" fill="#ADD8E6" rx="112.7192" ry="24.9438" style="stroke:#2F4F4F;stroke-width:0.5;"/><text fill="#000000" font-family="sans-serif" font-size="14" lengthAdjust="spacing" textLength="189" x="3581.7192" y="334.6724">A&#241;adir nombre e ID de pedido</text></g><g id="elem_GMN54"><path d="M3047.5,174.5 L3047.5,217.2031 L3178.5,217.2031 L3178.5,184.5 L3168.5,174.5 L3047.5,174.5 " fill="#FEFFDD" style="stroke:#181818;stroke-width:0.5;"/><path d="M3168.5,174.5 L3168.5,184.5 L3178.5,184.5 L3168.5,174.5 " fill="#FEFFDD" style="stroke:#181818;stroke-width:1.0;"/><text fill="#000000" font-family="sans-serif" font-size="13" lengthAdjust="spacing" textLength="66" x="3053.5" y="192.9951">Proceso de</text><text fill="#000000" font-family="sans-serif" font-size="13" lengthAdjust="spacing" textLength="110" x="3053.5" y="209.3467">creaci&#243;n de factura</text></g><!--link admin to UC1--><g id="link_admin_UC1"><path d="M1057.6,50.92 C1119.93,58.59 1238.16,72.87 1339,83.5 C1431.12,93.21 1668.68,86.43 1754,122.5 C1784.19,135.26 1807.6012,158.2614 1822.7212,175.4814 " fill="none" id="admin-to-UC1" style="stroke:#000080;stroke-width:1.0;"/><polygon fill="#000080" points="1826.68,179.99,1823.7476,170.5878,1823.381,176.2328,1817.736,175.8662,1826.68,179.99" style="stroke:#000080;stroke-width:1.0;"/></g><!--link admin to UC2--><g id="link_admin_UC2"><path d="M1057.59,50.77 C1192.61,67.15 1595.57,116.41 1608,122.5 C1635.27,135.86 1654.9524,158.6085 1667.4924,175.6385 " fill="none" id="admin-to-UC2" style="stroke:#000080;stroke-width:1.0;"/><polygon fill="#000080" points="1671.05,180.47,1668.9345,170.851,1668.0853,176.4438,1662.4925,175.5946,1671.05,180.47" style="stroke:#000080;stroke-width:1.0;"/></g><!--link admin to UC3--><g id="link_admin_UC3"><path d="M1057.61,46.29 C1136.43,49.24 1306.28,62.68 1434,122.5 C1463.56,136.34 1487.2396,158.3586 1503.1396,175.1886 " fill="none" id="admin-to-UC3" style="stroke:#000080;stroke-width:1.0;"/><polygon fill="#000080" points="1507.26,179.55,1503.987,170.2609,1503.8263,175.9155,1498.1717,175.7548,1507.26,179.55" style="stroke:#000080;stroke-width:1.0;"/></g><!--link admin to UC7--><g id="link_admin_UC7"><path d="M970.5,44.67 C856.3,43.65 539.59,48.29 290,122.5 C253.52,133.35 220.4271,150.4103 192.8271,166.7003 " fill="none" id="admin-to-UC7" style="stroke:#000080;stroke-width:1.0;"/><polygon fill="#000080" points="187.66,169.75,197.4438,168.6202,191.9659,167.2086,193.3775,161.7307,187.66,169.75" style="stroke:#000080;stroke-width:1.0;"/></g><!--link admin to UC8--><g id="link_admin_UC8"><path d="M970.23,47.76 C886.45,53.16 698.56,70.52 550,122.5 C515.24,134.66 483.9482,152.5072 458.5582,168.8172 " fill="none" id="admin-to-UC8" style="stroke:#000080;stroke-width:1.0;"/><polygon fill="#000080" points="453.51,172.06,463.2441,170.5612,457.7168,169.3576,458.9204,163.8303,453.51,172.06" style="stroke:#000080;stroke-width:1.0;"/></g><!--link admin to UC9--><g id="link_admin_UC9"><path d="M970.15,60.99 C930.01,75.57 869.22,98.69 818,122.5 C785.5,137.61 755.0789,154.0698 728.7389,169.0098 " fill="none" id="admin-to-UC9" style="stroke:#000080;stroke-width:1.0;"/><polygon fill="#000080" points="723.52,171.97,733.3219,171.009,727.8691,169.5032,729.375,164.0504,723.52,171.97" style="stroke:#000080;stroke-width:1.0;"/></g><!--link inventory to UC1--><g id="link_inventory_UC1"><path d="M1468.04,50.57 C1558.27,59.59 1730.83,80.62 1782,113.5 C1807.13,129.65 1821.8514,155.7259 1830.3614,174.4859 " fill="none" id="inventory-to-UC1" style="stroke:#000080;stroke-width:1.0;"/><polygon fill="#000080" points="1832.84,179.95,1832.7648,170.1014,1830.7745,175.3966,1825.4793,173.4063,1832.84,179.95" style="stroke:#000080;stroke-width:1.0;"/></g><!--link inventory to UC2--><g id="link_inventory_UC2"><path d="M1468.21,59.93 C1506.47,71.19 1557.34,89.04 1598,113.5 C1603.12,116.58 1603.66,118.39 1608,122.5 C1629.03,142.38 1648.4593,161.8556 1662.9993,176.6156 " fill="none" id="inventory-to-UC2" style="stroke:#000080;stroke-width:1.0;"/><polygon fill="#000080" points="1667.21,180.89,1663.7436,171.6713,1663.7011,177.328,1658.0444,177.2855,1667.21,180.89" style="stroke:#000080;stroke-width:1.0;"/></g><!--link inventory to UC3--><g id="link_inventory_UC3"><path d="M1439.79,83.61 C1462.49,114.76 1489.8853,152.3217 1506.2453,174.7617 " fill="none" id="inventory-to-UC3" style="stroke:#000080;stroke-width:1.0;"/><polygon fill="#000080" points="1509.78,179.61,1507.7102,169.9811,1506.8344,175.5697,1501.2458,174.694,1509.78,179.61" style="stroke:#000080;stroke-width:1.0;"/></g><!--link inventory to UC4--><g id="link_inventory_UC4"><path d="M1395.17,83.61 C1381.5,114.58 1365.333,151.211 1355.383,173.751 " fill="none" id="inventory-to-UC4" style="stroke:#000080;stroke-width:1.0;"/><polygon fill="#000080" points="1352.96,179.24,1360.2539,172.6219,1354.9792,174.6659,1352.9352,169.3912,1352.96,179.24" style="stroke:#000080;stroke-width:1.0;"/></g><!--link inventory to UC5--><g id="link_inventory_UC5"><path d="M1355.99,48.22 C1276.05,53.84 1126.08,70.93 1010,122.5 C979.08,136.24 953.2409,157.531 935.2109,174.321 " fill="none" id="inventory-to-UC5" style="stroke:#000080;stroke-width:1.0;"/><polygon fill="#000080" points="930.82,178.41,940.1324,175.2039,934.4791,175.0025,934.6804,169.3493,930.82,178.41" style="stroke:#000080;stroke-width:1.0;"/></g><!--link inventory to UC6--><g id="link_inventory_UC6"><path d="M1355.99,72.69 C1326.86,87.09 1290.78,105.31 1259,122.5 C1228.33,139.09 1199.2688,155.9762 1174.3988,170.7462 " fill="none" id="inventory-to-UC6" style="stroke:#000080;stroke-width:1.0;"/><polygon fill="#000080" points="1169.24,173.81,1179.0207,172.6536,1173.539,171.2569,1174.9357,165.7752,1169.24,173.81" style="stroke:#000080;stroke-width:1.0;"/></g><!--link dispatcher to UC1--><g id="link_dispatcher_UC1"><path d="M1843.47,83.61 C1842.21,114.93 1840.7415,151.6449 1839.8415,173.9849 " fill="none" id="dispatcher-to-UC1" style="stroke:#000080;stroke-width:1.0;"/><polygon fill="#000080" points="1839.6,179.98,1843.959,171.1483,1839.8013,174.9841,1835.9655,170.8263,1839.6,179.98" style="stroke:#000080;stroke-width:1.0;"/></g><!--link dispatcher to UC2--><g id="link_dispatcher_UC2"><path d="M1802.26,80.46 C1786.82,93.41 1769.41,108.37 1754,122.5 C1732.67,142.06 1713.2785,161.5841 1698.8485,176.4541 " fill="none" id="dispatcher-to-UC2" style="stroke:#000080;stroke-width:1.0;"/><polygon fill="#000080" points="1694.67,180.76,1703.8083,177.0868,1698.152,177.1718,1698.0671,171.5156,1694.67,180.76" style="stroke:#000080;stroke-width:1.0;"/></g><!--link dispatcher to UC3--><g id="link_dispatcher_UC3"><path d="M1802.14,54.39 C1753.29,65.64 1672.08,87.85 1609,122.5 C1580.55,138.13 1556.7152,159.2903 1540.1852,175.4903 " fill="none" id="dispatcher-to-UC3" style="stroke:#000080;stroke-width:1.0;"/><polygon fill="#000080" points="1535.9,179.69,1545.1276,176.2473,1539.471,176.1903,1539.528,170.5337,1535.9,179.69" style="stroke:#000080;stroke-width:1.0;"/></g><!--link dispatcher to UC10--><g id="link_dispatcher_UC10"><path d="M1887.57,82.07 C1923.58,113.02 1968.939,151.9899 1995.709,174.9899 " fill="none" id="dispatcher-to-UC10" style="stroke:#000080;stroke-width:1.0;"/><polygon fill="#000080" points="2000.26,178.9,1996.0402,170.0009,1996.4675,175.6416,1990.8268,176.0689,2000.26,178.9" style="stroke:#000080;stroke-width:1.0;"/></g><!--link dispatcher to UC11--><g id="link_dispatcher_UC11"><path d="M1887.91,52.17 C1942.62,61.91 2039,83.29 2113,122.5 C2141.84,137.78 2165.6449,159.46 2181.7849,175.81 " fill="none" id="dispatcher-to-UC11" style="stroke:#000080;stroke-width:1.0;"/><polygon fill="#000080" points="2186,180.08,2182.524,170.865,2182.4874,176.5217,2176.8307,176.4851,2186,180.08" style="stroke:#000080;stroke-width:1.0;"/></g><!--link deliveryGuy to UC1--><g id="link_deliveryGuy_UC1"><path d="M2258.29,52.35 C2168.99,70.51 1932.59,118.8 1925,122.5 C1895.51,136.88 1871.794,159.2331 1856.154,175.9131 " fill="none" id="deliveryGuy-to-UC1" style="stroke:#000080;stroke-width:1.0;"/><polygon fill="#000080" points="1852.05,180.29,1861.1239,176.4607,1855.47,176.6426,1855.2881,170.9887,1852.05,180.29" style="stroke:#000080;stroke-width:1.0;"/></g><!--link deliveryGuy to UC2--><g id="link_deliveryGuy_UC2"><path d="M2258.45,47.54 C2155.2,54.26 1843.74,77.81 1754,122.5 C1726.82,136.04 1707.1227,158.7496 1694.5527,175.7096 " fill="none" id="deliveryGuy-to-UC2" style="stroke:#000080;stroke-width:1.0;"/><polygon fill="#000080" points="1690.98,180.53,1699.5526,175.6812,1693.9572,176.513,1693.1254,170.9176,1690.98,180.53" style="stroke:#000080;stroke-width:1.0;"/></g><!--link deliveryGuy to UC3--><g id="link_deliveryGuy_UC3"><path d="M2258.44,48.75 C2125.21,61.71 1639.32,109.66 1609,122.5 C1578.38,135.47 1554.1237,158.2349 1538.2637,175.3849 " fill="none" id="deliveryGuy-to-UC3" style="stroke:#000080;stroke-width:1.0;"/><polygon fill="#000080" points="1534.19,179.79,1543.2373,175.8982,1537.5848,176.1191,1537.3639,170.4666,1534.19,179.79" style="stroke:#000080;stroke-width:1.0;"/></g><!--link deliveryGuy to UC12--><g id="link_deliveryGuy_UC12"><path d="M2314.69,83.61 C2332.82,114.06 2354.2913,150.1341 2367.8613,172.9341 " fill="none" id="deliveryGuy-to-UC12" style="stroke:#000080;stroke-width:1.0;"/><polygon fill="#000080" points="2370.93,178.09,2369.7643,168.3104,2368.3728,173.7934,2362.8897,172.4019,2370.93,178.09" style="stroke:#000080;stroke-width:1.0;"/></g><!--link deliveryGuy to UC13--><g id="link_deliveryGuy_UC13"><path d="M2325.82,58.14 C2363.18,72.44 2424.83,97.08 2476,122.5 C2507.23,138.01 2536.2784,154.9244 2560.9884,170.0044 " fill="none" id="deliveryGuy-to-UC13" style="stroke:#000080;stroke-width:1.0;"/><polygon fill="#000080" points="2566.11,173.13,2560.5114,165.0272,2561.842,170.5253,2556.3439,171.856,2566.11,173.13" style="stroke:#000080;stroke-width:1.0;"/></g><!--link deliveryGuy to UC14--><g id="link_deliveryGuy_UC14"><path d="M2325.68,48.36 C2399.63,55.32 2581.17,76.06 2726,122.5 C2762.33,134.15 2795.8127,149.9614 2825.1127,165.4114 " fill="none" id="deliveryGuy-to-UC14" style="stroke:#000080;stroke-width:1.0;"/><polygon fill="#000080" points="2830.42,168.21,2824.3247,160.4739,2825.9972,165.8778,2820.5933,167.5504,2830.42,168.21" style="stroke:#000080;stroke-width:1.0;"/></g><!--reverse link UC1 to UC15--><g id="link_UC1_UC15"><path d="M1854.8307,216.6752 C1874.2807,240.8552 1908.82,283.79 1930.35,310.55 " fill="none" id="UC1-backto-UC15" style="stroke:#000080;stroke-width:1.0;stroke-dasharray:7.0,7.0;"/><polygon fill="#000080" points="1851.07,212,1853.5942,221.5199,1854.2039,215.896,1859.8278,216.5057,1851.07,212" style="stroke:#000080;stroke-width:1.0;"/><text fill="#000000" font-family="sans-serif" font-size="13" lengthAdjust="spacing" textLength="53" x="1899" y="269.9951">&#171;extend&#187;</text></g><!--reverse link UC1 to UC16--><g id="link_UC1_UC16"><path d="M1825.18,217.2342 C1817.21,228.9742 1809.42,240.66 1800,255.5 C1786.88,276.17 1772.34,300.51 1763.44,315.6 " fill="none" id="UC1-backto-UC16" style="stroke:#000080;stroke-width:1.0;stroke-dasharray:7.0,7.0;"/><polygon fill="#000080" points="1828.55,212.27,1820.1855,217.4695,1825.7416,216.4068,1826.8044,221.9629,1828.55,212.27" style="stroke:#000080;stroke-width:1.0;"/><text fill="#000000" font-family="sans-serif" font-size="13" lengthAdjust="spacing" textLength="53" x="1801" y="269.9951">&#171;extend&#187;</text></g><!--link UC11 to A?adir producto solicitado a env?o--><g id="link_UC11_A&#241;adir producto solicitado a env&#237;o"><path d="M2234.25,210.08 C2250.09,215.65 2269.28,221.71 2287,225.5 C2611.26,294.84 2700.9,255.5 3029,303.5 C3045.51,305.92 3057.1368,307.8064 3074.0168,310.8764 " fill="none" id="UC11-to-A&#241;adir producto solicitado a env&#237;o" style="stroke:#000080;stroke-width:1.0;stroke-dasharray:7.0,7.0;"/><polygon fill="#000080" points="3079.92,311.95,3071.781,306.4041,3075.0007,311.0553,3070.3495,314.275,3079.92,311.95" style="stroke:#000080;stroke-width:1.0;"/><text fill="#000000" font-family="sans-serif" font-size="13" lengthAdjust="spacing" textLength="55" x="2670" y="269.9951">&#171;include&#187;</text></g><!--link UC11 to A?adir direcci?n de env?o--><g id="link_UC11_A&#241;adir direcci&#243;n de env&#237;o"><path d="M2233.36,210.09 C2249.34,215.8 2268.9,221.99 2287,225.5 C2482.46,263.45 2535.45,240.59 2734,255.5 C2991.05,274.8 3057.23,264.27 3312,303.5 C3329.19,306.15 3341.7564,308.5728 3358.7764,312.4028 " fill="none" id="UC11-to-A&#241;adir direcci&#243;n de env&#237;o" style="stroke:#000080;stroke-width:1.0;stroke-dasharray:7.0,7.0;"/><polygon fill="#000080" points="3364.63,313.72,3356.7277,307.8417,3359.752,312.6223,3354.9714,315.6466,3364.63,313.72" style="stroke:#000080;stroke-width:1.0;"/><text fill="#000000" font-family="sans-serif" font-size="13" lengthAdjust="spacing" textLength="55" x="3044" y="269.9951">&#171;include&#187;</text></g><!--link UC11 to A?adir nombre e ID de pedido--><g id="link_UC11_A&#241;adir nombre e ID de pedido"><path d="M2232.9,210.19 C2248.95,216 2268.69,222.23 2287,225.5 C2466.73,257.56 2925.92,242.21 3108,255.5 C3303.31,269.75 3352.52,273.24 3546,303.5 C3562.95,306.15 3575.166,308.3259 3592.306,311.7459 " fill="none" id="UC11-to-A&#241;adir nombre e ID de pedido" style="stroke:#000080;stroke-width:1.0;stroke-dasharray:7.0,7.0;"/><polygon fill="#000080" points="3598.19,312.92,3590.1467,307.2362,3593.2867,311.9416,3588.5813,315.0816,3598.19,312.92" style="stroke:#000080;stroke-width:1.0;"/><text fill="#000000" font-family="sans-serif" font-size="13" lengthAdjust="spacing" textLength="55" x="3328" y="269.9951">&#171;include&#187;</text></g><!--link UC11 to GMN54--><g id="link_UC11_GMN54"><path d="M2211.65,180.02 C2228.97,157.77 2263.87,118.46 2304.5,103 C2341.21,89.03 2974.89,88.76 3011.5,103 C3048.03,117.21 3079.41,151.38 3097.25,174.1 " fill="none" id="UC11-GMN54" style="stroke:#000080;stroke-width:1.0;stroke-dasharray:7.0,7.0;"/></g><!--SRC=[ZLLBJnin4BxxLrXme1o8o8C04OeK4XHH5OH0RLMfbwbtabZPsAlnRY2g-4azLBtrcZ_MiRExUMneUuWKVpFp-VEyzaWESAIDLdhvoyW89RfKnzO9DzKc0OAPp1mgS2Y_2oclGKt7P3CJzMriINxGuqbw7MVeRPOYf1K-09e-nP3Ya631jXwHVLwPxc4U49LQ-cj8SDYvx_C48HMl6-e8LGfc7E_Nrukrmd_gUnL7ksa0VpiwqUb5CyPTIX1PwaXm4ZmY3n-qcOhEUnoXzzTcZYO5qZRuh8wM5l8mf6X8Y4Pq1kWIK9EIAj9yJjK4AVVxWd5idqNd4VbrgIxzCDPpfCKmAmZx2p22PJ-nD9o1J4WRfHE8nJeX1uMHzTq1_oLvJGZHGKZLaUo3ivwRAsobihFCy8EbV7Vhym0a7JgVZcElu6E_xasVc6E6Plax1niUx2DHnRt9bd1BDKC5qHh9OrhUqXiJZfak8HjbN8NSTkPjDv5cVwd0S6uWyhGxRktYsgsw-TWX6lGo2HDBQP24PhxyuLEWlGYNKvo_uLsHU_66OxIgSabuMMZQAByFVSHn4CXlnOXhNIJwD2ILAqLon7sO4HIMUi6qxeyLaOfXLk49nRa3KgN5LzbAVD6fTQLRymst4SInFt004HSMouXM8UFc9KNZjCqRXtLaISY6ieOVvd3vizH-jlLaXmNUvl4J_aKngC3aKyWRg1p1rRoTd7H34swU6bkdvjRfVEjqiNMw568ze0NnBjAe8CqAqgeWPnMaBSJ6c1UtLQ165Mhk2JpTWzNvXeq5KLvHmHfxiEQ-s7sEzRsUhMhjSDKKt3627UHLhHRABplowYhOecvtqzBUjbJuUB75MSbNbxLQbxS4TrQarrj2EikhdhS3DopaWtqSY4DuXAixTwBvXshzwVlFA6DdtuZTvUqWRA1ywBR3-1dtDkKMnvU4bK6gv-24iRmYo2zmQKUXTXpsG5OXh-08lnh5OryAogTV_040]--></g></svg>