<?xml version="1.0" standalone="no"?>
<!DOCTYPE svg PUBLIC "-//W3C//DTD SVG 20010904//EN"
 "http://www.w3.org/TR/2001/REC-SVG-20010904/DTD/svg10.dtd">
<svg version="1.0" xmlns="http://www.w3.org/2000/svg"
 width="547.000000pt" height="456.000000pt" viewBox="0 0 547.000000 456.000000"
 preserveAspectRatio="xMidYMid meet">

<g transform="translate(0.000000,456.000000) scale(0.100000,-0.100000)"
fill="#000000" stroke="none">
<path d="M2600 3839 c-304 -19 -657 -145 -909 -326 -124 -89 -293 -252 -380
-366 -68 -89 -171 -251 -171 -269 0 -4 36 -8 79 -8 l79 0 28 48 c112 192 331
411 534 535 284 172 550 248 875 248 328 0 586 -74 880 -252 197 -118 418
-341 529 -531 l28 -48 79 0 c43 0 79 4 79 8 0 5 -23 47 -51 93 -152 254 -393
491 -645 635 -313 178 -659 256 -1034 233z"/>
<path d="M2457 3579 c-396 -69 -790 -324 -1010 -654 -33 -49 -33 -55 -3 -55
18 0 35 16 70 64 98 137 273 300 421 393 74 47 249 128 340 157 297 97 623 97
920 0 91 -29 266 -110 340 -157 148 -93 323 -256 421 -393 35 -48 52 -64 70
-64 13 0 24 4 24 9 0 23 -133 186 -229 281 -222 219 -513 368 -816 420 -156
27 -395 26 -548 -1z"/>
<path d="M2595 3526 c-52 -17 -98 -41 -115 -61 -10 -12 -24 -14 -61 -9 -113
15 -217 -73 -194 -163 11 -46 77 -101 131 -109 l47 -7 -6 -79 c-4 -68 -9 -84
-31 -107 -38 -39 -74 -127 -87 -211 -7 -50 -19 -85 -35 -106 -41 -55 -57 -108
-52 -178 5 -83 38 -135 105 -167 26 -12 62 -33 78 -45 17 -12 66 -35 110 -50
67 -23 101 -28 210 -32 153 -4 246 11 339 58 193 97 227 130 234 229 5 70 -8
114 -54 181 -24 36 -34 60 -34 89 0 60 -37 165 -76 217 -32 42 -37 55 -41 124
l-6 77 40 6 c83 14 152 92 138 156 -18 84 -137 144 -219 112 -14 -5 -34 2 -68
26 -27 18 -73 40 -101 48 -61 18 -196 19 -252 1z m280 -45 c65 -29 103 -66
116 -113 5 -21 14 -38 20 -38 17 0 22 30 10 57 -6 14 -9 28 -6 31 13 13 106 3
132 -14 41 -26 52 -45 53 -85 0 -71 -92 -124 -172 -99 -21 6 -36 15 -33 21 14
22 -26 19 -52 -5 -46 -43 -122 -66 -217 -66 -134 0 -222 38 -269 117 -28 48
-48 28 -23 -23 9 -20 14 -39 11 -42 -12 -13 -102 -4 -133 12 -44 23 -66 72
-51 115 22 62 140 101 173 56 13 -19 15 -18 40 12 27 32 94 70 150 84 57 15
198 4 251 -20z m150 -393 l0 -93 -37 -18 c-50 -25 -146 -39 -258 -39 -112 0
-208 14 -258 39 l-37 18 -3 96 -3 97 28 5 c18 3 44 -3 75 -19 111 -56 274 -55
382 4 45 25 54 27 81 16 l30 -12 0 -94z m-542 -152 c62 -21 164 -36 248 -36
118 0 295 39 314 70 26 42 105 -140 105 -240 0 -18 13 -47 34 -74 77 -101 66
-236 -22 -288 l-30 -18 -6 34 c-9 46 -34 65 -123 96 -70 23 -82 31 -120 80
-24 30 -56 69 -72 86 -55 59 -134 48 -188 -26 -80 -108 -89 -116 -151 -134
-78 -22 -124 -53 -136 -94 -5 -17 -14 -32 -20 -32 -40 0 -95 84 -96 145 0 50
19 102 54 148 26 35 34 55 39 107 7 79 29 142 63 187 23 31 28 33 43 20 9 -8
38 -22 64 -31z m285 -302 c12 -8 41 -41 64 -72 57 -77 71 -87 161 -118 85 -28
105 -50 93 -98 -8 -32 -78 -69 -173 -93 -91 -22 -275 -22 -366 0 -79 20 -162
59 -171 82 -22 58 0 82 106 115 69 21 98 46 163 137 44 62 82 76 123 47z"/>
<path d="M2560 3398 c-24 -26 -27 -78 -5 -78 8 0 15 8 15 18 0 10 7 27 15 38
31 41 11 60 -25 22z"/>
<path d="M2474 2780 c-26 -10 -48 -61 -39 -89 7 -24 33 -28 41 -6 9 23 36 18
59 -12 39 -48 60 -3 30 62 -12 25 -54 59 -68 54 -1 0 -11 -4 -23 -9z"/>
<path d="M2933 2780 c-40 -16 -70 -108 -41 -126 6 -4 19 4 30 19 22 30 40 34
58 12 7 -8 18 -15 25 -15 38 0 21 90 -21 109 -14 6 -26 11 -27 10 -1 0 -12 -4
-24 -9z"/>
<path d="M2680 2486 c-77 -29 -90 -36 -90 -46 0 -22 31 -21 85 1 l55 23 53
-22 c62 -26 77 -27 77 -7 0 15 -67 49 -116 59 -16 3 -45 -1 -64 -8z"/>
<path d="M1583 2186 c-22 -24 -61 -87 -88 -140 -28 -53 -53 -96 -57 -96 -4 0
-25 35 -47 78 -22 43 -47 85 -57 93 -23 19 -101 17 -142 -5 -43 -22 -70 -76
-54 -110 13 -30 56 -44 78 -25 19 15 14 55 -6 50 -33 -8 -44 -5 -48 12 -8 38
57 83 92 65 18 -10 19 -19 13 -140 -8 -163 -23 -201 -80 -206 -26 -2 -39 1
-43 12 -8 20 -34 21 -34 1 0 -20 32 -35 75 -35 27 0 44 8 65 28 30 31 35 50
46 177 l6 80 46 -92 c26 -51 52 -93 60 -93 7 0 31 38 53 85 22 47 45 85 50 85
5 0 9 -17 9 -38 0 -62 21 -206 32 -219 16 -20 108 -13 108 8 0 5 -6 6 -14 3
-20 -8 -23 9 -41 185 -20 200 -19 205 9 238 22 25 27 27 46 15 25 -15 35 -10
27 13 -4 9 -19 15 -36 15 -22 0 -39 -11 -68 -44z"/>
<path d="M4019 2129 c-21 -18 -21 -20 -4 -14 64 23 101 4 130 -67 l15 -38 -43
0 c-74 0 -117 -50 -117 -135 0 -85 43 -135 118 -135 84 0 130 82 119 213 -7
83 -38 152 -81 178 -42 26 -107 25 -137 -2z m125 -152 c16 -11 18 -25 15 -100
-3 -67 -8 -90 -22 -104 -18 -17 -19 -17 -39 7 -17 21 -19 36 -16 108 2 60 7
85 18 92 20 13 23 12 44 -3z"/>
<path d="M2975 2135 c-5 -2 -32 -6 -59 -10 -87 -12 -138 -93 -87 -139 24 -21
49 -18 67 9 19 28 4 51 -24 36 -17 -9 -23 -8 -30 6 -5 10 -7 24 -5 31 6 16 56
42 83 42 19 0 20 -5 20 -152 0 -84 3 -163 6 -174 8 -30 45 -44 115 -44 99 0
152 40 152 115 0 48 -20 80 -60 96 l-23 8 25 25 c31 31 34 87 6 115 -31 31
-139 52 -186 36z m109 -28 c9 -7 20 -32 23 -55 5 -37 2 -45 -27 -72 -21 -19
-27 -30 -17 -30 28 0 67 -58 67 -99 0 -51 -33 -93 -69 -89 l-26 3 -3 169 c-2
129 1 171 10 178 17 11 21 10 42 -5z"/>
<path d="M2242 2065 c-6 -14 -27 -33 -47 -42 -36 -17 -46 -33 -20 -33 12 0 15
-19 15 -108 0 -93 3 -111 18 -125 25 -23 65 -21 93 3 l24 20 -25 -3 -25 -2 -3
108 -3 107 29 0 c15 0 33 5 40 12 17 17 15 48 -4 48 -11 0 -14 -6 -9 -20 5
-17 2 -20 -24 -20 -29 0 -31 2 -31 40 0 46 -11 52 -28 15z"/>
<path d="M1724 1985 c-20 -20 -23 -28 -14 -45 6 -11 17 -20 26 -20 19 0 30 30
14 40 -20 12 -2 30 30 30 33 0 51 -24 41 -53 -4 -11 -31 -31 -61 -45 -65 -32
-86 -65 -69 -108 5 -16 16 -32 22 -36 21 -13 70 -9 89 9 17 15 19 15 36 0 23
-21 52 -22 78 -2 17 13 17 14 2 15 -16 0 -18 12 -18 99 0 96 -1 100 -26 120
-40 31 -117 29 -150 -4z m96 -144 c0 -56 -19 -82 -45 -61 -31 26 -12 110 25
110 17 0 20 -7 20 -49z"/>
<path d="M1986 1994 c-31 -30 -23 -68 25 -126 21 -26 39 -56 39 -67 0 -30 -31
-43 -63 -26 -33 17 -36 2 -5 -19 35 -25 100 -21 126 7 38 40 29 80 -28 141
-54 57 -59 71 -32 84 27 15 43 4 36 -25 -6 -21 -3 -24 12 -21 25 5 30 39 8 55
-25 18 -99 17 -118 -3z"/>
<path d="M2405 1979 c-126 -111 2 -305 144 -218 35 21 37 38 3 20 -33 -17 -51
-13 -83 18 -43 43 -37 61 31 103 69 43 80 61 55 88 -13 15 -31 20 -66 20 -40
0 -55 -6 -84 -31z m93 -23 c3 -22 -3 -34 -20 -48 -38 -29 -50 -23 -42 20 4 20
11 43 17 50 17 21 42 9 45 -22z"/>
<path d="M2612 2001 c-11 -7 -11 -9 2 -14 12 -5 16 -28 18 -124 l3 -118 29 -3
c16 -2 32 2 37 10 5 7 9 52 9 100 0 82 2 89 25 104 14 9 32 13 45 9 17 -5 20
-2 20 19 0 21 -5 26 -23 26 -13 0 -32 -9 -42 -20 -10 -11 -21 -20 -25 -20 -4
0 -10 9 -13 20 -4 15 -13 20 -39 20 -18 0 -39 -4 -46 -9z"/>
<path d="M3260 2000 c-10 -6 -11 -10 -2 -10 9 0 12 -29 12 -112 0 -62 4 -119
9 -126 5 -8 21 -12 37 -10 l29 3 3 97 c3 96 3 98 31 112 15 8 38 12 50 9 19
-5 22 -2 19 18 -4 31 -38 36 -63 9 -23 -25 -31 -25 -38 0 -4 15 -13 20 -39 20
-18 0 -40 -5 -48 -10z"/>
<path d="M3533 1989 c-41 -26 -68 -94 -58 -145 4 -23 20 -51 40 -71 43 -43
108 -47 152 -8 l28 25 -27 -11 c-21 -9 -34 -9 -57 0 -28 12 -65 67 -55 82 2 4
29 22 59 39 66 38 80 58 59 88 -20 30 -96 30 -141 1z m81 -15 c13 -33 5 -54
-24 -69 -41 -21 -43 -20 -37 21 9 57 46 86 61 48z"/>
<path d="M3760 1990 c-11 -11 -20 -26 -20 -34 0 -20 27 -39 45 -32 17 6 21 36
5 36 -5 0 -10 7 -10 16 0 12 9 14 38 12 34 -3 37 -6 37 -33 0 -26 -7 -34 -53
-58 -64 -35 -86 -65 -77 -107 11 -49 68 -66 114 -34 22 16 24 16 33 0 11 -20
58 -21 84 -1 17 13 17 14 2 15 -16 0 -18 11 -18 95 0 88 -2 98 -25 120 -32 33
-124 36 -155 5z m100 -149 c0 -56 -19 -82 -45 -61 -18 15 -20 81 -3 98 7 7 20
12 30 12 15 0 18 -8 18 -49z"/>
<path d="M4518 1813 c-9 -10 -18 -46 -21 -82 -18 -212 -201 -346 -519 -381
-129 -13 -131 -13 -76 16 26 13 56 37 65 52 10 15 22 30 28 34 30 23 174 69
232 76 59 6 68 10 68 27 0 18 -6 20 -72 19 -64 0 -81 -5 -160 -44 -59 -29 -99
-43 -121 -41 -46 3 -168 -67 -149 -85 2 -3 21 5 41 17 20 12 40 19 43 16 3 -4
-9 -14 -26 -24 -53 -29 -66 -41 -58 -50 5 -4 26 2 47 15 60 34 71 26 15 -11
l-50 -32 -265 1 c-303 1 -439 10 -990 64 -614 61 -672 64 -1040 64 -384 1
-500 -10 -710 -65 -131 -34 -340 -128 -340 -153 0 -22 0 -21 110 24 117 47
250 83 402 107 95 15 176 18 503 18 233 0 444 -5 525 -13 74 -7 317 -30 540
-52 648 -63 687 -65 1110 -65 371 0 401 2 495 22 271 60 443 225 453 434 3 61
1 79 -13 92 -21 22 -48 22 -67 0z"/>
<path d="M3950 1719 c0 -5 5 -7 10 -4 6 3 10 8 10 11 0 2 -4 4 -10 4 -5 0 -10
-5 -10 -11z"/>
<path d="M4677 1672 c-9 -10 -22 -42 -28 -72 -26 -126 -114 -237 -233 -296
-56 -28 -64 -34 -36 -29 74 13 175 72 238 139 92 98 143 223 107 259 -21 21
-28 21 -48 -1z"/>
<path d="M3650 1656 c0 -9 7 -16 16 -16 17 0 14 22 -4 28 -7 2 -12 -3 -12 -12z"/>
<path d="M3845 1650 c-41 -9 -68 -27 -87 -60 -8 -15 -28 -30 -44 -34 -93 -23
-244 -126 -244 -166 0 -33 18 -32 57 3 54 48 125 95 186 122 41 18 61 22 92
16 60 -10 116 3 142 34 27 30 27 35 10 59 -16 21 -72 34 -112 26z m56 -80
c-13 -11 -35 -20 -49 -20 -32 0 -27 5 23 23 53 19 54 19 26 -3z"/>
<path d="M4014 1625 c-4 -9 -2 -21 4 -27 15 -15 44 -1 40 19 -4 23 -36 29 -44
8z"/>
<path d="M995 1564 c-44 -8 -114 -24 -155 -35 -84 -24 -253 -89 -247 -96 3 -2
51 10 108 27 151 45 310 70 518 80 101 5 186 12 189 15 15 15 -24 20 -171 22
-107 1 -189 -3 -242 -13z"/>
<path d="M3735 1480 c-7 -12 2 -30 16 -30 12 0 12 27 0 35 -5 3 -12 1 -16 -5z"/>
<path d="M1140 1223 c0 -13 53 -103 111 -188 143 -212 347 -403 567 -532 394
-232 838 -305 1291 -212 442 90 854 366 1110 744 57 83 111 175 111 187 0 2
-35 2 -77 2 -63 -1 -80 -5 -90 -20 -8 -11 -41 -59 -75 -109 -91 -133 -286
-323 -428 -417 -573 -382 -1324 -374 -1880 19 -123 87 -318 283 -398 398 -34
50 -67 98 -74 107 -10 12 -33 18 -90 21 -43 2 -78 2 -78 0z"/>
<path d="M1420 1222 c0 -12 48 -81 111 -157 123 -153 330 -320 503 -407 101
-51 254 -104 371 -129 97 -21 137 -24 330 -24 193 0 233 3 330 24 381 82 743
325 958 646 33 48 33 55 4 55 -17 0 -38 -20 -81 -79 -218 -298 -574 -519 -948
-588 -127 -23 -399 -23 -526 0 -374 69 -723 285 -945 585 -46 61 -67 82 -84
82 -13 0 -23 -3 -23 -8z"/>
<path d="M2705 1162 l-30 -57 -60 -9 c-33 -5 -62 -10 -64 -13 -3 -2 16 -25 42
-51 l47 -48 -10 -53 c-5 -30 -10 -58 -10 -63 0 -4 26 5 58 21 l57 29 58 -29
c64 -33 64 -33 47 51 -8 44 -8 46 38 92 25 26 44 49 41 51 -2 3 -31 8 -64 13
l-60 9 -27 58 c-15 31 -29 57 -30 57 -2 0 -16 -26 -33 -58z"/>
<path d="M2320 1035 c-22 -63 -27 -69 -75 -85 l-48 -16 41 -30 c40 -28 42 -31
42 -81 l0 -53 43 31 c42 29 43 29 80 14 54 -22 57 -20 39 34 l-15 49 32 41 33
41 -54 0 c-51 0 -54 1 -80 42 l-27 42 -11 -29z"/>
<path d="M3115 1022 c-26 -40 -30 -42 -76 -42 -27 0 -49 -3 -49 -7 0 -3 12
-22 27 -41 25 -33 26 -38 14 -80 -6 -25 -10 -46 -8 -48 2 -3 23 3 46 11 41 14
44 14 75 -10 18 -14 36 -25 39 -25 4 0 7 20 7 44 0 40 4 48 41 77 l42 33 -48
16 c-45 15 -50 20 -65 65 l-17 50 -28 -43z"/>
</g>
</svg>
