<?xml version="1.0" encoding="us-ascii" standalone="no"?><svg xmlns="http://www.w3.org/2000/svg" xmlns:xlink="http://www.w3.org/1999/xlink" contentStyleType="text/css" height="648px" preserveAspectRatio="none" style="width:3106px;height:648px;background:#FFFFFF;" version="1.1" viewBox="0 0 3106 648" width="3106px" zoomAndPan="magnify"><defs/><g><!--cluster Sistema de Master Bread--><g id="cluster_Sistema de Master Bread"><rect fill="#F0F8FF" height="512" rx="2.5" ry="2.5" style="stroke:#2F4F4F;stroke-width:1.0;" width="2945" x="7" y="130.5"/><text fill="#000000" font-family="sans-serif" font-size="14" font-weight="bold" lengthAdjust="spacing" textLength="176" x="1391.5" y="147.0332">Sistema de Master Bread</text></g><g id="elem_UC1"><ellipse cx="1808.855" cy="204.171" fill="#ADD8E6" rx="76.355" ry="17.671" style="stroke:#2F4F4F;stroke-width:0.5;"/><text fill="#000000" font-family="sans-serif" font-size="14" lengthAdjust="spacing" textLength="105" x="1753.6233" y="208.6255">Registrar pedido</text></g><g id="elem_UC2"><ellipse cx="1435.1531" cy="203.9306" fill="#ADD8E6" rx="70.1531" ry="16.4306" style="stroke:#2F4F4F;stroke-width:0.5;"/><text fill="#000000" font-family="sans-serif" font-size="14" lengthAdjust="spacing" textLength="88" x="1388.1531" y="208.4472">Ver inventario</text></g><g id="elem_UC3"><ellipse cx="2005.7698" cy="203.954" fill="#ADD8E6" rx="85.2698" ry="19.454" style="stroke:#2F4F4F;stroke-width:0.5;"/><text fill="#000000" font-family="sans-serif" font-size="14" lengthAdjust="spacing" textLength="127" x="1942.2698" y="207.6825">Reclamar un pedido</text></g><g id="elem_UC4"><ellipse cx="1619.1819" cy="204.1364" fill="#ADD8E6" rx="78.6819" ry="18.1364" style="stroke:#2F4F4F;stroke-width:0.5;"/><text fill="#000000" font-family="sans-serif" font-size="14" lengthAdjust="spacing" textLength="111" x="1562.0947" y="208.3083">Agregar producto</text></g><g id="elem_UC9"><ellipse cx="1222.8456" cy="204.1691" fill="#ADD8E6" rx="106.3456" ry="23.6691" style="stroke:#2F4F4F;stroke-width:0.5;"/><text fill="#000000" font-family="sans-serif" font-size="14" lengthAdjust="spacing" textLength="175" x="1135.3456" y="207.8976">Editar cantidad de producto</text></g><g id="elem_UC5"><ellipse cx="400.8554" cy="203.7711" fill="#ADD8E6" rx="116.8554" ry="25.7711" style="stroke:#2F4F4F;stroke-width:0.5;"/><text fill="#000000" font-family="sans-serif" font-size="14" lengthAdjust="spacing" textLength="198" x="301.8554" y="207.4996">Hacer reporte de envios diarios</text></g><g id="elem_UC6"><ellipse cx="658.9418" cy="203.9884" fill="#ADD8E6" rx="105.4418" ry="23.4884" style="stroke:#2F4F4F;stroke-width:0.5;"/><text fill="#000000" font-family="sans-serif" font-size="14" lengthAdjust="spacing" textLength="173" x="572.4418" y="207.7169">Hacer reporte de inventario</text></g><g id="elem_UC7"><ellipse cx="140.1128" cy="204.1226" fill="#ADD8E6" rx="108.6128" ry="24.1226" style="stroke:#2F4F4F;stroke-width:0.5;"/><text fill="#000000" font-family="sans-serif" font-size="14" lengthAdjust="spacing" textLength="180" x="50.1128" y="207.8511">Hacer reporte de despachos</text></g><g id="elem_UC10"><ellipse cx="2810.8945" cy="204.1789" fill="#ADD8E6" rx="116.3945" ry="25.6789" style="stroke:#2F4F4F;stroke-width:0.5;"/><text fill="#000000" font-family="sans-serif" font-size="14" lengthAdjust="spacing" textLength="197" x="2712.3945" y="207.9074">Marcar un pedido como exitoso</text></g><g id="elem_UC12"><ellipse cx="2525.0829" cy="203.8166" fill="#ADD8E6" rx="134.5829" ry="29.3166" style="stroke:#2F4F4F;stroke-width:0.5;"/><text fill="#000000" font-family="sans-serif" font-size="14" lengthAdjust="spacing" textLength="236" x="2407.0829" y="207.5451">Marcar pedido como fallido o erroneo</text></g><g id="elem_UC11"><ellipse cx="2240.7688" cy="204.1538" fill="#ADD8E6" rx="68.7688" ry="16.1538" style="stroke:#2F4F4F;stroke-width:0.5;"/><text fill="#000000" font-family="sans-serif" font-size="14" lengthAdjust="spacing" textLength="84" x="2195.7688" y="208.6704">Crear factura</text></g><g id="elem_UC13"><ellipse cx="2240.7727" cy="338.7545" fill="#ADD8E6" rx="124.2727" ry="27.2545" style="stroke:#2F4F4F;stroke-width:0.5;"/><text fill="#000000" font-family="sans-serif" font-size="14" lengthAdjust="spacing" textLength="214" x="2133.7727" y="342.4831">A&#241;ade producto solicitado a envio</text></g><g id="elem_UC14"><ellipse cx="2241.113" cy="466.8226" fill="#ADD8E6" rx="99.613" ry="22.3226" style="stroke:#2F4F4F;stroke-width:0.5;"/><text fill="#000000" font-family="sans-serif" font-size="14" lengthAdjust="spacing" textLength="160" x="2161.113" y="470.5511">A&#241;ade direccion de envio</text></g><g id="elem_UC15"><ellipse cx="2240.9736" cy="592.9947" fill="#ADD8E6" rx="115.4736" ry="25.4947" style="stroke:#2F4F4F;stroke-width:0.5;"/><text fill="#000000" font-family="sans-serif" font-size="14" lengthAdjust="spacing" textLength="195" x="2143.4736" y="596.7232">A&#241;ade nombre he id de pedido</text></g><g id="elem_UC18"><ellipse cx="868.0887" cy="204.0177" fill="#ADD8E6" rx="68.0887" ry="16.0177" style="stroke:#2F4F4F;stroke-width:0.5;"/><text fill="#000000" font-family="sans-serif" font-size="14" lengthAdjust="spacing" textLength="82" x="824.0887" y="208.5343">Iniciar sesion</text></g><g id="elem_UC8"><ellipse cx="1025.9968" cy="204.0429" fill="#ADD8E6" rx="54.9968" ry="15.5429" style="stroke:#2F4F4F;stroke-width:0.5;"/><text fill="#000000" font-family="sans-serif" font-size="14" lengthAdjust="spacing" textLength="61" x="992.4968" y="208.5595">Ver menu</text></g><g id="elem_UC16"><ellipse cx="1036.957" cy="338.7914" fill="#ADD8E6" rx="69.457" ry="16.2914" style="stroke:#2F4F4F;stroke-width:0.5;"/><text fill="#000000" font-family="sans-serif" font-size="14" lengthAdjust="spacing" textLength="86" x="990.957" y="343.308">Cerrar sesion</text></g><g id="elem_UC17"><ellipse cx="687.7827" cy="338.9565" fill="#ADD8E6" rx="80.2827" ry="18.4565" style="stroke:#2F4F4F;stroke-width:0.5;"/><text fill="#000000" font-family="sans-serif" font-size="14" lengthAdjust="spacing" textLength="115" x="629.4192" y="342.9341">Olvide contrase&#241;a</text></g><g id="elem_UC19"><ellipse cx="867.8631" cy="339.109" fill="#ADD8E6" rx="63.8631" ry="15.609" style="stroke:#2F4F4F;stroke-width:0.5;"/><text fill="#000000" font-family="sans-serif" font-size="14" lengthAdjust="spacing" textLength="73" x="828.3631" y="343.6256">Registrarse</text></g><!--entity admin--><g id="elem_admin"><ellipse cx="659" cy="14" fill="#FFC0CB" rx="8" ry="8" style="stroke:#181818;stroke-width:0.5;"/><path d="M659,22 L659,49 M646,30 L672,30 M659,49 L646,64 M659,49 L672,64 " fill="none" style="stroke:#181818;stroke-width:0.5;"/><text fill="#000000" font-family="sans-serif" font-size="14" lengthAdjust="spacing" textLength="87" x="615.5" y="80.0332">Administrador</text></g><!--entity inventary--><g id="elem_inventary"><ellipse cx="1223" cy="14" fill="#90EE90" rx="8" ry="8" style="stroke:#181818;stroke-width:0.5;"/><path d="M1223,22 L1223,49 M1210,30 L1236,30 M1223,49 L1210,64 M1223,49 L1236,64 " fill="none" style="stroke:#181818;stroke-width:0.5;"/><text fill="#000000" font-family="sans-serif" font-size="14" lengthAdjust="spacing" textLength="112" x="1167" y="80.0332">Jefe de inventario</text></g><!--entity dispatcher--><g id="elem_dispatcher"><ellipse cx="1687" cy="14" fill="#FFFFE0" rx="8" ry="8" style="stroke:#181818;stroke-width:0.5;"/><path d="M1687,22 L1687,49 M1674,30 L1700,30 M1687,49 L1674,64 M1687,49 L1700,64 " fill="none" style="stroke:#181818;stroke-width:0.5;"/><text fill="#000000" font-family="sans-serif" font-size="14" lengthAdjust="spacing" textLength="85" x="1644.5" y="80.0332">Despachador</text></g><!--entity niceGuy--><g id="elem_niceGuy"><ellipse cx="2006" cy="14" fill="#E0FFFF" rx="8" ry="8" style="stroke:#181818;stroke-width:0.5;"/><path d="M2006,22 L2006,49 M1993,30 L2019,30 M2006,49 L1993,64 M2006,49 L2019,64 " fill="none" style="stroke:#181818;stroke-width:0.5;"/><text fill="#000000" font-family="sans-serif" font-size="14" lengthAdjust="spacing" textLength="67" x="1972.5" y="80.0332">Repartidor</text></g><g id="elem_GMN51"><path d="M2968.5,182.5 L2968.5,225.2031 L3099.5,225.2031 L3099.5,192.5 L3089.5,182.5 L2968.5,182.5 " fill="#FEFFDD" style="stroke:#181818;stroke-width:0.5;"/><path d="M3089.5,182.5 L3089.5,192.5 L3099.5,192.5 L3089.5,182.5 " fill="#FEFFDD" style="stroke:#181818;stroke-width:1.0;"/><text fill="#000000" font-family="sans-serif" font-size="13" lengthAdjust="spacing" textLength="66" x="2974.5" y="200.9951">Proceso de</text><text fill="#000000" font-family="sans-serif" font-size="13" lengthAdjust="spacing" textLength="110" x="2974.5" y="217.3467">creaci&#243;n de factura</text></g><!--link admin to UC5--><g id="link_admin_UC5"><path d="M615.23,72.22 C566.07,102.23 492.121,147.3735 445.031,176.1235 " fill="none" id="admin-to-UC5" style="stroke:#000080;stroke-width:1.0;"/><polygon fill="#000080" points="439.91,179.25,449.6759,177.9742,444.1775,176.6445,445.5071,171.1462,439.91,179.25" style="stroke:#000080;stroke-width:1.0;"/></g><!--link admin to UC6--><g id="link_admin_UC6"><path d="M659,83.63 C659,113.85 659,149.07 659,174.32 " fill="none" id="admin-to-UC6" style="stroke:#000080;stroke-width:1.0;"/><polygon fill="#000080" points="659,180.32,663,171.32,659,175.32,655,171.32,659,180.32" style="stroke:#000080;stroke-width:1.0;"/></g><!--link admin to UC7--><g id="link_admin_UC7"><path d="M615.34,48.7 C541.17,55.3 386.85,74.09 266,122.5 C229.85,136.98 197.6119,158.5325 173.1319,176.8725 " fill="none" id="admin-to-UC7" style="stroke:#000080;stroke-width:1.0;"/><polygon fill="#000080" points="168.33,180.47,177.9311,178.275,172.3316,177.4721,173.1345,171.8725,168.33,180.47" style="stroke:#000080;stroke-width:1.0;"/></g><!--link admin to UC8--><g id="link_admin_UC8"><path d="M702.58,48.97 C763,55.45 873.81,73.54 954,122.5 C981.68,139.41 1004.83,170.22 1016.93,188.43 " fill="none" id="admin-UC8" style="stroke:#000080;stroke-width:1.0;"/></g><!--link admin to UC18--><g id="link_admin_UC18"><path d="M702.64,70.37 C726.5,84.63 756.17,103.43 781,122.5 C808.26,143.43 836.98,171.31 853.65,188.16 " fill="none" id="admin-UC18" style="stroke:#000080;stroke-width:1.0;"/></g><!--link inventary to UC2--><g id="link_inventary_UC2"><path d="M1279.08,77.31 C1300.88,90.44 1325.69,106.36 1347,122.5 C1374.4,143.25 1399.0261,166.6986 1415.9361,183.5986 " fill="none" id="inventary-to-UC2" style="stroke:#000080;stroke-width:1.0;"/><polygon fill="#000080" points="1420.18,187.84,1416.6417,178.6487,1416.6434,184.3055,1410.9866,184.3072,1420.18,187.84" style="stroke:#000080;stroke-width:1.0;"/></g><!--link inventary to UC4--><g id="link_inventary_UC4"><path d="M1279.01,52.28 C1341.34,61.51 1443.72,81.78 1523,122.5 C1555.12,139 1581.7786,163.6373 1599.4886,181.9473 " fill="none" id="inventary-to-UC4" style="stroke:#000080;stroke-width:1.0;"/><polygon fill="#000080" points="1603.66,186.26,1600.2781,177.01,1600.1838,182.6661,1594.5278,182.5719,1603.66,186.26" style="stroke:#000080;stroke-width:1.0;"/></g><!--link inventary to UC8--><g id="link_inventary_UC8"><path d="M1166.95,76.25 C1145.16,89.3 1120.54,105.43 1100,122.5 C1075.33,143.01 1050.98,171.52 1037.28,188.53 " fill="none" id="inventary-UC8" style="stroke:#000080;stroke-width:1.0;"/></g><!--link inventary to UC18--><g id="link_inventary_UC18"><path d="M1166.94,53.6 C1110.34,63.55 1021.83,84.06 954,122.5 C923.57,139.74 895.42,169.87 880.08,187.97 " fill="none" id="inventary-UC18" style="stroke:#000080;stroke-width:1.0;"/></g><!--link inventary to UC9--><g id="link_inventary_UC9"><path d="M1223,83.63 C1223,113.85 1223,149.07 1223,174.32 " fill="none" id="inventary-to-UC9" style="stroke:#000080;stroke-width:1.0;"/><polygon fill="#000080" points="1223,180.32,1227,171.32,1223,175.32,1219,171.32,1223,180.32" style="stroke:#000080;stroke-width:1.0;"/></g><!--link dispatcher to UC1--><g id="link_dispatcher_UC1"><path d="M1716.53,83.63 C1741.92,116.4 1773.6463,157.3562 1792.4263,181.6062 " fill="none" id="dispatcher-to-UC1" style="stroke:#000080;stroke-width:1.0;"/><polygon fill="#000080" points="1796.1,186.35,1793.7519,176.7851,1793.0385,182.3968,1787.4268,181.6835,1796.1,186.35" style="stroke:#000080;stroke-width:1.0;"/></g><!--link dispatcher to UC8--><g id="link_dispatcher_UC8"><path d="M1647.64,83.57 C1632.42,95.85 1614.08,107.97 1595,114.5 C1568.98,123.41 1125.09,111.24 1100,122.5 C1069.34,136.26 1045.7,169.47 1034.03,188.66 " fill="none" id="dispatcher-UC8" style="stroke:#000080;stroke-width:1.0;"/></g><!--link dispatcher to UC18--><g id="link_dispatcher_UC18"><path d="M1644.39,49.61 C1490.25,64.51 969.86,115.26 954,122.5 C921.63,137.29 893.53,169.16 878.86,188.06 " fill="none" id="dispatcher-UC18" style="stroke:#000080;stroke-width:1.0;"/></g><!--link dispatcher to UC11--><g id="link_dispatcher_UC11"><path d="M1729.69,51.3 C1822.28,64.21 2038.79,96.24 2108,122.5 C2151.66,139.06 2192.2212,166.4387 2217.0612,184.7587 " fill="none" id="dispatcher-to-UC11" style="stroke:#000080;stroke-width:1.0;"/><polygon fill="#000080" points="2221.89,188.32,2217.0211,179.7588,2217.866,185.3522,2212.2726,186.1972,2221.89,188.32" style="stroke:#000080;stroke-width:1.0;"/></g><!--link niceGuy to UC3--><g id="link_niceGuy_UC3"><path d="M2006,83.63 C2006,115.49 2006,153.57 2006,178.28 " fill="none" id="niceGuy-to-UC3" style="stroke:#000080;stroke-width:1.0;"/><polygon fill="#000080" points="2006,184.28,2010,175.28,2006,179.28,2002,175.28,2006,184.28" style="stroke:#000080;stroke-width:1.0;"/></g><!--link niceGuy to UC8--><g id="link_niceGuy_UC8"><path d="M1972.34,75.68 C1953.63,90.44 1929.1,106.67 1904,114.5 C1861.36,127.8 1140.81,104.34 1100,122.5 C1069.3,136.16 1045.68,169.41 1034.02,188.64 " fill="none" id="niceGuy-UC8" style="stroke:#000080;stroke-width:1.0;"/></g><!--link niceGuy to UC18--><g id="link_niceGuy_UC18"><path d="M1972.19,51.53 C1922.86,60.08 1828.19,75.57 1747,83.5 C1725.05,85.64 974.31,113.9 954,122.5 C921.05,136.46 892.96,168.95 878.48,188.12 " fill="none" id="niceGuy-UC18" style="stroke:#000080;stroke-width:1.0;"/></g><!--link niceGuy to UC10--><g id="link_niceGuy_UC10"><path d="M2039.59,47.47 C2158.17,54.7 2556.54,81.56 2677,122.5 C2715.29,135.51 2749.5319,157.1426 2775.5419,175.8826 " fill="none" id="niceGuy-to-UC10" style="stroke:#000080;stroke-width:1.0;"/><polygon fill="#000080" points="2780.41,179.39,2775.4462,170.8835,2776.3533,176.4672,2770.7696,177.3743,2780.41,179.39" style="stroke:#000080;stroke-width:1.0;"/></g><!--link niceGuy to UC12--><g id="link_niceGuy_UC12"><path d="M2039.65,48.85 C2106.62,56.27 2260.59,77.17 2382,122.5 C2418.57,136.15 2451.8808,155.0402 2479.6608,172.6302 " fill="none" id="niceGuy-to-UC12" style="stroke:#000080;stroke-width:1.0;"/><polygon fill="#000080" points="2484.73,175.84,2479.266,167.6458,2480.5056,173.1652,2474.9863,174.4048,2484.73,175.84" style="stroke:#000080;stroke-width:1.0;"/></g><!--link UC11 to UC13--><g id="link_UC11_UC13"><path d="M2241,220.26 C2241,242.5 2241,278.15 2241,305.48 " fill="none" id="UC11-to-UC13" style="stroke:#000080;stroke-width:1.0;stroke-dasharray:7.0,7.0;"/><polygon fill="#000080" points="2241,311.48,2245,302.48,2241,306.48,2237,302.48,2241,311.48" style="stroke:#000080;stroke-width:1.0;"/><text fill="#000000" font-family="sans-serif" font-size="13" lengthAdjust="spacing" textLength="55" x="2242" y="277.9951">&#171;include&#187;</text></g><!--link UC13 to UC14--><g id="link_UC13_UC14"><path d="M2241,366.72 C2241,389.84 2241,416.84 2241,438.34 " fill="none" id="UC13-to-UC14" style="stroke:#000080;stroke-width:1.0;stroke-dasharray:7.0,7.0;"/><polygon fill="#000080" points="2241,444.34,2245,435.34,2241,439.34,2237,435.34,2241,444.34" style="stroke:#000080;stroke-width:1.0;"/><text fill="#000000" font-family="sans-serif" font-size="13" lengthAdjust="spacing" textLength="55" x="2242" y="410.9951">&#171;include&#187;</text></g><!--link UC14 to UC15--><g id="link_UC14_UC15"><path d="M2241,489.6 C2241,511.25 2241,538.54 2241,561.24 " fill="none" id="UC14-to-UC15" style="stroke:#000080;stroke-width:1.0;stroke-dasharray:7.0,7.0;"/><polygon fill="#000080" points="2241,567.24,2245,558.24,2241,562.24,2237,558.24,2241,567.24" style="stroke:#000080;stroke-width:1.0;"/><text fill="#000000" font-family="sans-serif" font-size="13" lengthAdjust="spacing" textLength="55" x="2242" y="533.9951">&#171;include&#187;</text></g><!--link UC8 to UC16--><g id="link_UC8_UC16"><path d="M1027.22,219.74 C1029.31,245.04 1033.0757,290.5004 1035.2157,316.3904 " fill="none" id="UC8-to-UC16" style="stroke:#000080;stroke-width:1.0;stroke-dasharray:7.0,7.0;"/><polygon fill="#000080" points="1035.71,322.37,1038.955,313.0711,1035.2981,317.387,1030.9822,313.7301,1035.71,322.37" style="stroke:#000080;stroke-width:1.0;"/><text fill="#000000" font-family="sans-serif" font-size="13" lengthAdjust="spacing" textLength="53" x="1033" y="277.9951">&#171;extend&#187;</text></g><!--link UC18 to UC17--><g id="link_UC18_UC17"><path d="M848.39,219.49 C814.77,244.33 751.1256,291.3543 715.5056,317.6743 " fill="none" id="UC18-to-UC17" style="stroke:#000080;stroke-width:1.0;stroke-dasharray:7.0,7.0;"/><polygon fill="#000080" points="710.68,321.24,720.2955,319.1086,714.7013,318.2686,715.5412,312.6745,710.68,321.24" style="stroke:#000080;stroke-width:1.0;"/><text fill="#000000" font-family="sans-serif" font-size="13" lengthAdjust="spacing" textLength="53" x="790" y="277.9951">&#171;extend&#187;</text></g><!--link UC18 to UC19--><g id="link_UC18_UC19"><path d="M868,220.26 C868,246.05 868,291.93 868,317.33 " fill="none" id="UC18-to-UC19" style="stroke:#000080;stroke-width:1.0;stroke-dasharray:7.0,7.0;"/><polygon fill="#000080" points="868,323.33,872,314.33,868,318.33,864,314.33,868,323.33" style="stroke:#000080;stroke-width:1.0;"/><text fill="#000000" font-family="sans-serif" font-size="13" lengthAdjust="spacing" textLength="53" x="869" y="277.9951">&#171;extend&#187;</text></g><!--link UC11 to GMN51--><g id="link_UC11_GMN51"><path d="M2257.3,188.14 C2283.18,164.18 2336.41,119.77 2391.5,103 C2448.37,85.69 2871.23,81.11 2926.5,103 C2966.74,118.94 3000.7,157.85 3019.13,182.46 " fill="none" id="UC11-GMN51" style="stroke:#000080;stroke-width:1.0;stroke-dasharray:7.0,7.0;"/></g><!--SRC=[XLNDJXin4BxxAImuG0-WvWS84K8AeQAj2aMWjghKozIU95OsTcHxGr35GrLz15wiO-zwivk5zX0fCzytus_6uzazVeaJfPLGptyqbyZHUPKPnznSwILOMF3SeG27_1VZ_0B4V6fDhkNOPCRoJsewynTPZW4pLg8j_9TWv_SPUBooy4ZOo5hpK40ti8eUuOtzPqWaR9ttRORWsHEhoRCeFEXfzhB0KQO4_bSW9TpRRWI4yz6nuKWkoE-y1Mdia8FZ43nyzrRfEHj-n0a6lj8hr1wiCf6Jp4U-6vjqPH4r6rwYMuAOLQca8jkB6TgIznspp3omuHrIULub7Wd3gpmb6p-23fBlIHOkW2-jqa8j8MERRkmaaBHT0_sr_C8Yo9tOfptUrarkRwReWvZ0uNp_3gUnSikNA4dCcw3boxXJe5-9k0aliMwA51aiA33NpTXUWO-c5gSXhpKofrQNQBz0tqb5ERa0JIq06NHk4K-9-4I_M4lZYbueupq8CYmkZVMnQDGhPKBtWt1NfZnwXTmgyVWLeYmkjqfu4ZL6XPlhhCahrLs35VL6SM4MXkDQUUEgZhzjSEl42MHPC2Y4Nfd6AgHRRr5jyDeAnZGObX89drj8uUKbZvv_Gwtzt1bwKdGxT28KVKm1lKQ0L3IBGXbTzJln-WsUDekV5lcC-bpSSsFGZb8Bzp-4jqag7JfAcl01A-TmWJeldT4tfcQqsE7YzZzdAqNd2ADfNXoIYWI7-zgClCFaFsN5XhZ33495w89GsfBLaYWsmi71UHoZkdNSi4ugA-gi6LG9s-oCWjrjUVeDJyonvUWCMa4alxPc2b-dwOgPjZsTmGjn7SRIBYeylPeTqpJCpc2BJeEyvUYsMqlRBCjTsCGi7CaF3oEpnuVyx2o24i_FMNILMB-DzHDsrC862JgE4AuzQbb4LT39wz1f4sAXWXlZQLfmlQJd0Lwjm35jQ2_OiB2vcSJcKTojDGATeJ9_Q47lhlhWbC-F_GK0]--></g></svg>